<svg viewBox="0 0 877 457" fill="none" xmlns="http://www.w3.org/2000/svg"><path d="M15.432 20h9.576v-3.51h-.126l-1.26 2.718c-.126.252-.198.288-.45.288h-4.158c-.198 0-.252-.072-.252-.306v-5.382h2.97c.252 0 .342.054.468.288l.792 1.476h.126v-3.996h-.126l-.792 1.458c-.126.234-.216.288-.468.288h-2.97V8.138c0-.234.054-.288.252-.288H23.1c.234 0 .324.018.432.27l1.206 2.754h.126V7.346h-9.432v.144l1.692.666c.216.09.252.144.252.342V18.83c0 .198-.036.252-.252.342l-1.692.684V20Zm15.523 0h3.78v-.126l-.846-.594c-.198-.144-.288-.252-.468-.504l-2.466-3.366 2.178-2.844c.162-.216.306-.342.486-.468l1.116-.72v-.126h-3.312v.126l1.17.702c.162.108.162.198.036.342l-1.944 2.592-1.962-2.736c-.144-.198-.126-.288.072-.378l1.062-.522v-.126h-3.78v.126l.846.594c.216.162.288.234.468.486l2.466 3.402-2.142 2.826c-.162.198-.288.342-.504.468l-1.116.72V20h3.33v-.126l-1.17-.702c-.162-.108-.18-.198-.036-.36l1.926-2.538 1.944 2.718c.126.18.108.27-.072.378l-1.062.504V20Zm7.67.18c1.152 0 1.944-.738 2.232-1.854l-.108-.036c-.288.576-.846 1.044-1.566 1.044-.792 0-1.296-.54-1.296-1.44v-6.12h2.952v-.522h-2.952V8.246h-.126l-1.062 2.7c-.108.27-.144.306-.414.306H35.17v.522h1.44v6.264c0 1.458.792 2.142 2.016 2.142Zm2.839-.18h5.166v-.126l-2.016-.702c-.216-.072-.234-.144-.234-.36v-4.374c.414-1.062 1.008-1.998 1.62-2.358.162-.144.288-.198.396-.198.09 0 .126.018.162.126l.738 1.764h.108l.72-2.52a2.46 2.46 0 0 0-.972-.18c-1.278 0-2.304 1.206-2.826 2.79v-2.61h-2.862v.126l1.44.828c.18.108.198.18.198.378v6.3c0 .198-.036.27-.234.36l-1.404.63V20Zm13.69.18c.612 0 1.044-.36 1.26-.81.072-.18.126-.36.144-.54l-.09-.054c-.126.306-.378.54-.756.54-.414 0-.666-.342-.666-1.008 0-1.152.072-2.808.072-4.176 0-1.098-.288-1.872-.828-2.358-.504-.522-1.26-.702-2.358-.702-.9 0-1.674.162-2.628.54l.612 2.322h.108l.81-2.142c.036-.108.108-.162.216-.198.162-.036.414-.072.702-.072 1.494 0 2.142.9 2.142 2.43 0 .45 0 1.044-.018 1.656-.54-.27-1.17-.378-1.746-.378-1.782 0-3.24 1.008-3.24 2.682 0 1.404 1.044 2.268 2.376 2.268 1.206 0 2.142-.738 2.574-1.782.036 1.17.522 1.782 1.314 1.782Zm-4.95-2.394c0-1.116.828-2.034 2.358-2.034.378 0 .882.072 1.314.216l-.036 1.872c-.45.954-1.26 1.476-2.088 1.476-.828 0-1.548-.522-1.548-1.53ZM61.095 20h4.518v-.126l-1.404-.63c-.198-.09-.216-.162-.216-.36V6.932l-2.772.414v.126l1.314.594c.162.072.18.162.18.378v10.44c0 .198-.018.27-.216.36l-1.404.63V20Zm9.368.18c2.178 0 3.996-1.692 3.996-4.608 0-2.88-1.8-4.5-3.942-4.5-2.16 0-3.978 1.674-3.978 4.59 0 2.88 1.782 4.518 3.924 4.518Zm-2.43-4.554c0-2.502.882-4.086 2.448-4.086 1.584 0 2.484 1.602 2.484 4.068 0 2.52-.882 4.104-2.43 4.104-1.62 0-2.502-1.62-2.502-4.086Zm11.852 4.554c2.178 0 3.996-1.692 3.996-4.608 0-2.88-1.8-4.5-3.942-4.5-2.16 0-3.978 1.674-3.978 4.59 0 2.88 1.782 4.518 3.924 4.518Zm-2.43-4.554c0-2.502.882-4.086 2.448-4.086 1.584 0 2.484 1.602 2.484 4.068 0 2.52-.882 4.104-2.43 4.104-1.62 0-2.502-1.62-2.502-4.086Zm10.772 4.554c1.8 0 3.294-.99 3.294-2.628 0-1.17-.738-1.854-1.944-2.304l-1.404-.522c-.936-.342-1.512-.792-1.512-1.602 0-.936.81-1.638 1.98-1.638.252 0 .432.018.684.072.216.054.306.09.378.27l.774 1.98h.108l.594-2.268c-.9-.324-1.8-.468-2.538-.468-1.728 0-3.06 1.008-3.06 2.484 0 1.116.738 1.854 1.908 2.304l1.332.504c.99.378 1.512.792 1.512 1.62 0 1.062-.846 1.764-2.124 1.764-.396 0-.81-.054-1.062-.126-.198-.054-.27-.108-.342-.306l-.702-2.142h-.108l-.648 2.466c.882.324 1.962.54 2.88.54Zm8.459 0c1.655 0 2.97-.972 3.402-2.952l-.126-.036c-.703 1.53-1.675 2.052-2.79 2.052-1.53 0-2.916-1.116-2.916-3.852 0-.144 0-.288.017-.414h5.653c.017-.126.017-.198.017-.324 0-2.232-1.511-3.582-3.347-3.582-1.89 0-3.636 1.494-3.636 4.59 0 3.06 1.71 4.518 3.726 4.518Zm-2.395-5.652c.199-1.854 1.026-3.006 2.287-3.006 1.385 0 2.051 1.296 2.123 3.006h-4.41ZM324.653 20h9.054v-3.762h-.126l-1.26 2.97c-.108.252-.198.288-.468.288h-3.618c-.198 0-.252-.072-.252-.306V8.498c0-.198.018-.252.234-.342l1.71-.666v-.144h-5.274v.144l1.692.666c.216.09.252.144.252.342V18.83c0 .216-.036.252-.252.342l-1.692.684V20Zm13.982.18c1.656 0 2.97-.972 3.402-2.952l-.126-.036c-.702 1.53-1.674 2.052-2.79 2.052-1.53 0-2.916-1.116-2.916-3.852 0-.144 0-.288.018-.414h5.652c.018-.126.018-.198.018-.324 0-2.232-1.512-3.582-3.348-3.582-1.89 0-3.636 1.494-3.636 4.59 0 3.06 1.71 4.518 3.726 4.518Zm-2.394-5.652c.198-1.854 1.026-3.006 2.286-3.006 1.386 0 2.052 1.296 2.124 3.006h-4.41Zm10.146 5.652c1.152 0 1.944-.738 2.232-1.854l-.108-.036c-.288.576-.846 1.044-1.566 1.044-.792 0-1.296-.54-1.296-1.44v-6.12h2.952v-.522h-2.952V8.246h-.126l-1.062 2.7c-.108.27-.144.306-.414.306h-1.116v.522h1.44v6.264c0 1.458.792 2.142 2.016 2.142Zm6.223 0c1.152 0 1.944-.738 2.232-1.854l-.108-.036c-.288.576-.846 1.044-1.566 1.044-.792 0-1.296-.54-1.296-1.44v-6.12h2.952v-.522h-2.952V8.246h-.126l-1.062 2.7c-.108.27-.144.306-.414.306h-1.116v.522h1.44v6.264c0 1.458.792 2.142 2.016 2.142Zm6.82 0c1.656 0 2.97-.972 3.402-2.952l-.126-.036c-.702 1.53-1.674 2.052-2.79 2.052-1.53 0-2.916-1.116-2.916-3.852 0-.144 0-.288.018-.414h5.652c.018-.126.018-.198.018-.324 0-2.232-1.512-3.582-3.348-3.582-1.89 0-3.636 1.494-3.636 4.59 0 3.06 1.71 4.518 3.726 4.518Zm-2.394-5.652c.198-1.854 1.026-3.006 2.286-3.006 1.386 0 2.052 1.296 2.124 3.006h-4.41ZM363.851 20h5.166v-.126l-2.016-.702c-.216-.072-.234-.144-.234-.36v-4.374c.414-1.062 1.008-1.998 1.62-2.358.162-.144.288-.198.396-.198.09 0 .126.018.162.126l.738 1.764h.108l.72-2.52a2.46 2.46 0 0 0-.972-.18c-1.278 0-2.304 1.206-2.826 2.79v-2.61h-2.862v.126l1.44.828c.18.108.198.18.198.378v6.3c0 .198-.036.27-.234.36l-1.404.63V20Zm14.296.18c1.8 0 3.294-.99 3.294-2.628 0-1.17-.738-1.854-1.944-2.304l-1.404-.522c-.936-.342-1.512-.792-1.512-1.602 0-.936.81-1.638 1.98-1.638.252 0 .432.018.684.072.216.054.306.09.378.27l.774 1.98h.108l.594-2.268c-.9-.324-1.8-.468-2.538-.468-1.728 0-3.06 1.008-3.06 2.484 0 1.116.738 1.854 1.908 2.304l1.332.504c.99.378 1.512.792 1.512 1.62 0 1.062-.846 1.764-2.124 1.764-.396 0-.81-.054-1.062-.126-.198-.054-.27-.108-.342-.306l-.702-2.142h-.108l-.648 2.466c.882.324 1.962.54 2.88.54Zm4.336-.18h4.536v-.126l-1.404-.63c-.198-.09-.216-.162-.216-.36v-7.632h-2.916v.126l1.44.828c.18.108.198.18.198.396v6.282c0 .198-.036.27-.234.36l-1.404.63V20Zm1.134-11.322c0 .54.432.972.954.972a.972.972 0 1 0 0-1.944.964.964 0 0 0-.954.972ZM387.85 20h6.372l.234-3.006h-.108l-1.332 2.322c-.108.18-.126.198-.396.198h-3.096l5.094-8.136v-.126h-6.444v2.88h.108l1.206-2.214c.108-.18.144-.18.396-.18h3.078l-5.112 8.136V20Zm11.886.18c1.656 0 2.97-.972 3.402-2.952l-.126-.036c-.702 1.53-1.674 2.052-2.79 2.052-1.53 0-2.916-1.116-2.916-3.852 0-.144 0-.288.018-.414h5.652c.018-.126.018-.198.018-.324 0-2.232-1.512-3.582-3.348-3.582-1.89 0-3.636 1.494-3.636 4.59 0 3.06 1.71 4.518 3.726 4.518Zm-2.394-5.652c.198-1.854 1.026-3.006 2.286-3.006 1.386 0 2.052 1.296 2.124 3.006h-4.41ZM474.227 20.234c.828 0 2.034-.108 3.042-.396v-3.582h-.144l-1.368 3.078c-.09.216-.162.27-.468.324a6.202 6.202 0 0 1-1.044.072c-3.078 0-4.554-2.286-4.554-6.12 0-3.42 1.314-6.012 4.464-6.012.36 0 .774.018 1.116.09.306.054.36.09.486.378l1.368 2.97h.144V7.544c-1.17-.288-2.214-.432-3.06-.432-3.834 0-6.138 2.754-6.138 6.552 0 3.78 1.962 6.57 6.156 6.57Zm4.219-.234h4.518v-.126l-1.404-.63c-.198-.09-.216-.162-.216-.36V13.61c.468-.972 1.224-1.656 2.232-1.656 1.098 0 1.854.738 1.854 2.556 0 1.44-.018 3.132-.018 4.392 0 .198-.018.27-.234.36l-1.386.612V20h4.536v-.126l-1.404-.612c-.198-.09-.234-.18-.234-.378 0-1.278.018-3.096.018-4.464 0-2.304-1.008-3.348-2.682-3.348-1.26 0-2.178.72-2.682 2.016V6.932l-2.772.414v.126l1.314.594c.162.072.18.162.18.378v10.44c0 .198-.018.27-.216.36l-1.404.63V20Zm14.408.18c1.656 0 2.97-.972 3.402-2.952l-.126-.036c-.702 1.53-1.674 2.052-2.79 2.052-1.53 0-2.916-1.116-2.916-3.852 0-.144 0-.288.018-.414h5.652c.018-.126.018-.198.018-.324 0-2.232-1.512-3.582-3.348-3.582-1.89 0-3.636 1.494-3.636 4.59 0 3.06 1.71 4.518 3.726 4.518Zm-2.394-5.652c.198-1.854 1.026-3.006 2.286-3.006 1.386 0 2.052 1.296 2.124 3.006h-4.41Zm10.037 5.652c1.8 0 3.294-.99 3.294-2.628 0-1.17-.738-1.854-1.944-2.304l-1.404-.522c-.936-.342-1.512-.792-1.512-1.602 0-.936.81-1.638 1.98-1.638.252 0 .432.018.684.072.216.054.306.09.378.27l.774 1.98h.108l.594-2.268c-.9-.324-1.8-.468-2.538-.468-1.728 0-3.06 1.008-3.06 2.484 0 1.116.738 1.854 1.908 2.304l1.332.504c.99.378 1.512.792 1.512 1.62 0 1.062-.846 1.764-2.124 1.764-.396 0-.81-.054-1.062-.126-.198-.054-.27-.108-.342-.306l-.702-2.142h-.108l-.648 2.466c.882.324 1.962.54 2.88.54Zm7.721 0c1.152 0 1.944-.738 2.232-1.854l-.108-.036c-.288.576-.846 1.044-1.566 1.044-.792 0-1.296-.54-1.296-1.44v-6.12h2.952v-.522h-2.952V8.246h-.126l-1.062 2.7c-.108.27-.144.306-.414.306h-1.116v.522h1.44v6.264c0 1.458.792 2.142 2.016 2.142Zm8.934-5.67c.054-2.718 1.062-5.202 2.664-7.308h-1.44c-1.494 1.998-2.574 4.698-2.574 7.308 0 2.61 1.08 5.31 2.574 7.308h1.44c-1.602-2.106-2.61-4.59-2.664-7.308Zm4.971 1.062c0-1.962.99-3.384 2.826-3.384 1.188 0 2.214.684 2.376 1.962h1.404c-.216-1.926-1.692-3.15-3.78-3.15-2.484 0-4.248 1.728-4.248 4.572 0 2.844 1.764 4.59 4.248 4.59 2.088 0 3.564-1.224 3.78-3.15h-1.404c-.162 1.278-1.188 1.962-2.376 1.962-1.836 0-2.826-1.44-2.826-3.402ZM543.9 14.42c0-2.394-1.314-3.42-3.06-3.42-1.422 0-2.322.612-2.97 1.566-.486-1.008-1.404-1.566-2.7-1.566-1.314 0-2.178.684-2.682 1.476v-1.314h-1.296V20h1.35v-4.95c0-1.8 1.062-2.862 2.286-2.862 1.368 0 2.052.72 2.052 2.412V20h1.35v-5.256c0-1.692 1.152-2.556 2.286-2.556 1.332 0 2.052.72 2.052 2.286V20h1.332v-5.58Zm4.414.09c-.054 2.718-1.062 5.202-2.664 7.308h1.44c1.494-1.998 2.574-4.698 2.574-7.308 0-2.61-1.08-5.31-2.574-7.308h-1.44c1.602 2.106 2.61 4.59 2.664 7.308ZM.42 422.32h3.444V431h1.134v-8.68h3.444v-1.036H.42v1.036ZM14.74 431h1.05v-4.326c0-1.652-.883-2.674-2.437-2.674-.952 0-1.75.336-2.282 1.12v-3.836h-1.05V431h1.05v-3.85c0-1.204.728-2.226 2.016-2.226.994 0 1.652.518 1.652 1.974V431Zm2.817-3.444c0 2.254 1.4 3.57 3.248 3.57 1.47 0 2.716-.728 3.024-2.212h-1.106c-.252.882-1.022 1.302-1.946 1.302-1.33 0-2.072-1.106-2.128-2.31h5.292c.014-.154.014-.322.014-.392 0-2.338-1.344-3.514-3.136-3.514-1.904 0-3.262 1.386-3.262 3.556Zm1.106-.504c.182-1.372 1.008-2.142 2.17-2.142 1.12 0 1.974.742 2.03 2.142h-4.2ZM31.603 424c-1.667 0-3.08 1.274-3.08 3.57s1.441 3.556 3.051 3.556c1.022 0 1.862-.364 2.38-1.134V431h1.008v-9.716h-1.05v3.836c-.56-.784-1.372-1.12-2.31-1.12Zm.223.924c1.428 0 2.198 1.12 2.198 2.646 0 1.526-.77 2.632-2.198 2.632s-2.198-1.106-2.198-2.632.77-2.646 2.198-2.646Zm5.457-.798V431h1.05v-6.874h-1.05Zm-.112-1.288h1.274v-1.274h-1.274v1.274Zm13.373 3.822c0-1.862-1.022-2.66-2.38-2.66-1.106 0-1.806.476-2.31 1.218-.378-.784-1.092-1.218-2.1-1.218-1.022 0-1.694.532-2.086 1.148v-1.022H40.66V431h1.05v-3.85c0-1.4.826-2.226 1.778-2.226 1.064 0 1.596.56 1.596 1.876v4.2h1.05v-4.088c0-1.316.896-1.988 1.778-1.988 1.036 0 1.596.56 1.596 1.778V431h1.036v-4.34Zm1.767.896c0 2.254 1.4 3.57 3.248 3.57 1.47 0 2.716-.728 3.024-2.212h-1.106c-.252.882-1.022 1.302-1.946 1.302-1.33 0-2.072-1.106-2.128-2.31h5.292c.014-.154.014-.322.014-.392 0-2.338-1.344-3.514-3.136-3.514-1.904 0-3.262 1.386-3.262 3.556Zm1.106-.504c.182-1.372 1.008-2.142 2.17-2.142 1.12 0 1.974.742 2.03 2.142h-4.2ZM61.644 431v-3.85c0-1.204.728-2.226 2.016-2.226.994 0 1.652.518 1.652 1.974V431h1.05v-4.326c0-1.652-.882-2.674-2.436-2.674-1.078 0-1.82.42-2.324 1.162v-1.036h-1.008V431h1.05Zm6.737-4.998c0 1.022.644 1.624 1.904 1.876l1.414.28c.742.154 1.134.462 1.134.966 0 .63-.462 1.106-1.708 1.106-1.19 0-1.806-.518-1.862-1.316h-1.092c.014 1.344 1.19 2.212 2.926 2.212 1.75 0 2.814-.854 2.814-2.044 0-1.022-.644-1.624-1.904-1.876l-1.414-.28c-.742-.154-1.134-.462-1.134-.966 0-.616.616-1.064 1.596-1.064.938 0 1.596.406 1.638 1.204h1.092c-.042-1.428-1.358-2.1-2.73-2.1-1.54 0-2.674.784-2.674 2.002Zm7.43-1.876V431h1.05v-6.874h-1.05Zm-.113-1.288h1.274v-1.274h-1.274v1.274Zm6.317 8.288c1.932 0 3.304-1.344 3.304-3.556 0-2.212-1.372-3.57-3.304-3.57-1.932 0-3.304 1.358-3.304 3.57 0 2.212 1.372 3.556 3.304 3.556Zm0-.924c-1.428 0-2.198-1.106-2.198-2.632s.77-2.646 2.198-2.646 2.198 1.12 2.198 2.646c0 1.526-.77 2.632-2.198 2.632Zm6.207.798v-3.85c0-1.204.728-2.226 2.016-2.226.994 0 1.652.518 1.652 1.974V431h1.05v-4.326c0-1.652-.882-2.674-2.436-2.674-1.078 0-1.82.42-2.324 1.162v-1.036h-1.008V431h1.05Zm6.738-4.998c0 1.022.644 1.624 1.904 1.876l1.413.28c.742.154 1.135.462 1.135.966 0 .63-.463 1.106-1.709 1.106-1.19 0-1.806-.518-1.862-1.316H94.75c.013 1.344 1.19 2.212 2.925 2.212 1.75 0 2.814-.854 2.814-2.044 0-1.022-.644-1.624-1.904-1.876l-1.413-.28c-.742-.154-1.135-.462-1.135-.966 0-.616.616-1.064 1.596-1.064.939 0 1.597.406 1.639 1.204h1.091c-.042-1.428-1.358-2.1-2.73-2.1-1.54 0-2.673.784-2.673 2.002ZM110.95 431v-4.69c0-1.638-1.19-2.31-2.814-2.31-1.372 0-2.73.616-2.786 2.1h1.092c.042-.798.686-1.19 1.694-1.19 1.036 0 1.792.378 1.792 1.4v.364l-2.618.448c-1.19.21-2.198.812-2.198 2.058 0 1.302 1.092 1.946 2.31 1.946.966 0 1.974-.322 2.548-1.19V431h.98Zm-3.388-.77c-.882 0-1.372-.406-1.372-1.036 0-.672.42-1.078 1.358-1.246l2.38-.406v.532c0 1.512-1.162 2.156-2.366 2.156Zm9.294-6.202c-.238-.014-.364-.014-.49-.014-.812 0-1.722.406-2.17 1.372v-1.26h-1.008V431h1.05v-3.794c0-1.33.896-2.086 1.974-2.086.182 0 .392 0 .644.014v-1.106Zm.942 3.528c0 2.254 1.4 3.57 3.248 3.57 1.47 0 2.716-.728 3.024-2.212h-1.106c-.252.882-1.022 1.302-1.946 1.302-1.33 0-2.072-1.106-2.128-2.31h5.292c.014-.154.014-.322.014-.392 0-2.338-1.344-3.514-3.136-3.514-1.904 0-3.262 1.386-3.262 3.556Zm1.106-.504c.182-1.372 1.008-2.142 2.17-2.142 1.12 0 1.974.742 2.03 2.142h-4.2Zm13.751-5.796a4.595 4.595 0 0 0-.882-.084c-1.288 0-2.128.742-2.128 2.184v.77h-1.134v.924h1.134V431h1.05v-5.95h1.96v-.924h-1.96v-.728c0-.91.392-1.274 1.148-1.274.252 0 .686.056.812.084v-.952Zm1.554 2.87V431h1.05v-6.874h-1.05Zm-.112-1.288h1.274v-1.274h-1.274v1.274Zm4 8.162 1.848-2.66 1.89 2.66h1.26l-2.506-3.458 2.464-3.416h-1.232l-1.82 2.632-1.89-2.632h-1.26l2.492 3.416-2.478 3.458h1.232Zm5.924-3.444c0 2.254 1.4 3.57 3.248 3.57 1.47 0 2.716-.728 3.024-2.212h-1.106c-.252.882-1.022 1.302-1.946 1.302-1.33 0-2.072-1.106-2.128-2.31h5.292c.014-.154.014-.322.014-.392 0-2.338-1.344-3.514-3.136-3.514-1.904 0-3.262 1.386-3.262 3.556Zm1.106-.504c.182-1.372 1.008-2.142 2.17-2.142 1.12 0 1.974.742 2.03 2.142h-4.2Zm9.795-3.052c-1.666 0-3.08 1.274-3.08 3.57s1.442 3.556 3.052 3.556c1.022 0 1.862-.364 2.38-1.134V431h1.008v-9.716h-1.05v3.836c-.56-.784-1.372-1.12-2.31-1.12Zm.224.924c1.428 0 2.198 1.12 2.198 2.646 0 1.526-.77 2.632-2.198 2.632s-2.198-1.106-2.198-2.632.77-2.646 2.198-2.646Zm11.961-.924c-.938 0-1.75.336-2.31 1.12v-3.836h-1.05V431h1.008v-1.008c.518.77 1.358 1.134 2.38 1.134 1.61 0 3.052-1.26 3.052-3.556 0-2.296-1.414-3.57-3.08-3.57Zm-.224.924c1.428 0 2.198 1.12 2.198 2.646 0 1.526-.77 2.632-2.198 2.632s-2.198-1.106-2.198-2.632.77-2.646 2.198-2.646Zm7.991 6.202c1.932 0 3.304-1.344 3.304-3.556 0-2.212-1.372-3.57-3.304-3.57-1.932 0-3.304 1.358-3.304 3.57 0 2.212 1.372 3.556 3.304 3.556Zm0-.924c-1.428 0-2.198-1.106-2.198-2.632s.77-2.646 2.198-2.646 2.198 1.12 2.198 2.646c0 1.526-.77 2.632-2.198 2.632Zm7.774-6.202c-1.666 0-3.08 1.274-3.08 3.57s1.442 3.556 3.052 3.556c1.022 0 1.862-.364 2.38-1.134V431h1.008v-9.716h-1.05v3.836c-.56-.784-1.372-1.12-2.31-1.12Zm.224.924c1.428 0 2.198 1.12 2.198 2.646 0 1.526-.77 2.632-2.198 2.632s-2.198-1.106-2.198-2.632.77-2.646 2.198-2.646Zm8.173 6.93 2.912-7.728h-1.106l-2.1 5.824-2.1-5.824h-1.134l2.702 7.21-.084.224c-.224.686-.616 1.008-1.386 1.008-.266 0-.546-.028-.798-.084v.966c.224.042.546.07.854.07 1.134 0 1.792-.49 2.24-1.666ZM201.188 424c-1.666 0-3.08 1.274-3.08 3.57s1.442 3.556 3.052 3.556c1.022 0 1.862-.364 2.38-1.134V431h1.008v-9.716h-1.05v3.836c-.56-.784-1.372-1.12-2.31-1.12Zm.224.924c1.428 0 2.198 1.12 2.198 2.646 0 1.526-.77 2.632-2.198 2.632s-2.198-1.106-2.198-2.632.77-2.646 2.198-2.646Zm5.457-.798V431h1.05v-6.874h-1.05Zm-.112-1.288h1.274v-1.274h-1.274v1.274Zm13.373 3.822c0-1.862-1.022-2.66-2.38-2.66-1.106 0-1.806.476-2.31 1.218-.378-.784-1.092-1.218-2.1-1.218-1.022 0-1.694.532-2.086 1.148v-1.022h-1.008V431h1.05v-3.85c0-1.4.826-2.226 1.778-2.226 1.064 0 1.596.56 1.596 1.876v4.2h1.05v-4.088c0-1.316.896-1.988 1.778-1.988 1.036 0 1.596.56 1.596 1.778V431h1.036v-4.34Zm1.767.896c0 2.254 1.4 3.57 3.248 3.57 1.47 0 2.716-.728 3.024-2.212h-1.106c-.252.882-1.022 1.302-1.946 1.302-1.33 0-2.072-1.106-2.128-2.31h5.292c.014-.154.014-.322.014-.392 0-2.338-1.344-3.514-3.136-3.514-1.904 0-3.262 1.386-3.262 3.556Zm1.106-.504c.182-1.372 1.008-2.142 2.17-2.142 1.12 0 1.974.742 2.03 2.142h-4.2ZM231.23 431v-3.85c0-1.204.728-2.226 2.016-2.226.994 0 1.652.518 1.652 1.974V431h1.05v-4.326c0-1.652-.882-2.674-2.436-2.674-1.078 0-1.82.42-2.324 1.162v-1.036h-1.008V431h1.05Zm6.737-4.998c0 1.022.644 1.624 1.904 1.876l1.414.28c.742.154 1.134.462 1.134.966 0 .63-.462 1.106-1.708 1.106-1.19 0-1.806-.518-1.862-1.316h-1.092c.014 1.344 1.19 2.212 2.926 2.212 1.75 0 2.814-.854 2.814-2.044 0-1.022-.644-1.624-1.904-1.876l-1.414-.28c-.742-.154-1.134-.462-1.134-.966 0-.616.616-1.064 1.596-1.064.938 0 1.596.406 1.638 1.204h1.092c-.042-1.428-1.358-2.1-2.73-2.1-1.54 0-2.674.784-2.674 2.002Zm7.429-1.876V431h1.05v-6.874h-1.05Zm-.112-1.288h1.274v-1.274h-1.274v1.274Zm6.317 8.288c1.932 0 3.304-1.344 3.304-3.556 0-2.212-1.372-3.57-3.304-3.57-1.932 0-3.304 1.358-3.304 3.57 0 2.212 1.372 3.556 3.304 3.556Zm0-.924c-1.428 0-2.198-1.106-2.198-2.632s.77-2.646 2.198-2.646 2.198 1.12 2.198 2.646c0 1.526-.77 2.632-2.198 2.632Zm6.207.798v-3.85c0-1.204.728-2.226 2.016-2.226.994 0 1.652.518 1.652 1.974V431h1.05v-4.326c0-1.652-.882-2.674-2.436-2.674-1.078 0-1.82.42-2.324 1.162v-1.036h-1.008V431h1.05Zm6.737-4.998c0 1.022.644 1.624 1.904 1.876l1.414.28c.742.154 1.134.462 1.134.966 0 .63-.462 1.106-1.708 1.106-1.19 0-1.806-.518-1.862-1.316h-1.092c.014 1.344 1.19 2.212 2.926 2.212 1.75 0 2.814-.854 2.814-2.044 0-1.022-.644-1.624-1.904-1.876l-1.414-.28c-.742-.154-1.134-.462-1.134-.966 0-.616.616-1.064 1.596-1.064.938 0 1.596.406 1.638 1.204h1.092c-.042-1.428-1.358-2.1-2.73-2.1-1.54 0-2.674.784-2.674 2.002Zm7.388 4.998h1.498v-1.498h-1.498V431ZM1.302 453h6.37v-1.036H2.436v-8.68H1.302V453Zm7.478-3.444c0 2.254 1.4 3.57 3.248 3.57 1.47 0 2.716-.728 3.024-2.212h-1.106c-.252.882-1.022 1.302-1.946 1.302-1.33 0-2.072-1.106-2.128-2.31h5.292c.014-.154.014-.322.014-.392 0-2.338-1.344-3.514-3.136-3.514-1.904 0-3.262 1.386-3.262 3.556Zm1.106-.504c.182-1.372 1.008-2.142 2.17-2.142 1.12 0 1.974.742 2.03 2.142h-4.2Zm6.38-2.002h1.133v4.018c0 1.316.686 2.03 1.834 2.03.378 0 .77-.042 1.176-.126v-.952a4.229 4.229 0 0 1-1.008.126c-.686 0-.952-.462-.952-1.288v-3.808h1.96v-.924h-1.96v-1.82h-1.008v1.82h-1.176v.924Zm5.113 0h1.134v4.018c0 1.316.686 2.03 1.834 2.03.378 0 .77-.042 1.176-.126v-.952a4.229 4.229 0 0 1-1.008.126c-.686 0-.952-.462-.952-1.288v-3.808h1.96v-.924h-1.96v-1.82h-1.008v1.82h-1.176v.924Zm5.27 2.506c0 2.254 1.4 3.57 3.248 3.57 1.47 0 2.716-.728 3.024-2.212h-1.106c-.252.882-1.022 1.302-1.946 1.302-1.33 0-2.072-1.106-2.128-2.31h5.292c.014-.154.014-.322.014-.392 0-2.338-1.344-3.514-3.136-3.514-1.904 0-3.262 1.386-3.262 3.556Zm1.106-.504c.182-1.372 1.008-2.142 2.17-2.142 1.12 0 1.974.742 2.03 2.142h-4.2Zm10.845-3.024c-.239-.014-.364-.014-.49-.014-.813 0-1.722.406-2.17 1.372v-1.26h-1.008V453h1.05v-3.794c0-1.33.895-2.086 1.974-2.086.181 0 .391 0 .643.014v-1.106Zm4.42 1.974c0 1.022.644 1.624 1.904 1.876l1.414.28c.742.154 1.134.462 1.134.966 0 .63-.462 1.106-1.708 1.106-1.19 0-1.806-.518-1.862-1.316H42.81c.014 1.344 1.19 2.212 2.926 2.212 1.75 0 2.814-.854 2.814-2.044 0-1.022-.644-1.624-1.904-1.876l-1.414-.28c-.742-.154-1.134-.462-1.134-.966 0-.616.616-1.064 1.596-1.064.938 0 1.596.406 1.638 1.204h1.092c-.042-1.428-1.358-2.1-2.73-2.1-1.54 0-2.674.784-2.674 2.002Zm7.43-1.876V453h1.05v-6.874h-1.05Zm-.113-1.288h1.274v-1.274h-1.274v1.274Zm3.111 1.288v.938h3.934l-4.102 5.18V453h5.46v-.938h-4.032l4.102-5.18v-.756h-5.362Zm6.642 3.43c0 2.254 1.4 3.57 3.248 3.57 1.47 0 2.716-.728 3.024-2.212h-1.106c-.252.882-1.022 1.302-1.946 1.302-1.33 0-2.072-1.106-2.128-2.31h5.292c.014-.154.014-.322.014-.392 0-2.338-1.344-3.514-3.136-3.514-1.904 0-3.262 1.386-3.262 3.556Zm1.106-.504c.182-1.372 1.008-2.142 2.17-2.142 1.12 0 1.974.742 2.03 2.142h-4.2Zm6.953-1.05c0 1.022.644 1.624 1.904 1.876l1.414.28c.742.154 1.134.462 1.134.966 0 .63-.462 1.106-1.708 1.106-1.19 0-1.806-.518-1.862-1.316h-1.092c.014 1.344 1.19 2.212 2.926 2.212 1.75 0 2.814-.854 2.814-2.044 0-1.022-.644-1.624-1.904-1.876l-1.414-.28c-.742-.154-1.134-.462-1.134-.966 0-.616.616-1.064 1.596-1.064.938 0 1.596.406 1.638 1.204h1.092c-.042-1.428-1.358-2.1-2.73-2.1-1.54 0-2.674.784-2.674 2.002ZM84.14 453v-4.69c0-1.638-1.19-2.31-2.815-2.31-1.371 0-2.73.616-2.785 2.1h1.091c.042-.798.686-1.19 1.694-1.19 1.037 0 1.793.378 1.793 1.4v.364l-2.618.448c-1.19.21-2.199.812-2.199 2.058 0 1.302 1.092 1.946 2.31 1.946.967 0 1.975-.322 2.549-1.19V453h.98Zm-3.389-.77c-.881 0-1.371-.406-1.371-1.036 0-.672.42-1.078 1.358-1.246l2.38-.406v.532c0 1.512-1.162 2.156-2.367 2.156Zm9.295-6.202c-.238-.014-.364-.014-.49-.014-.812 0-1.722.406-2.17 1.372v-1.26h-1.008V453h1.05v-3.794c0-1.33.896-2.086 1.974-2.086.182 0 .392 0 .644.014v-1.106Zm.942 3.528c0 2.254 1.4 3.57 3.248 3.57 1.47 0 2.716-.728 3.024-2.212h-1.106c-.252.882-1.022 1.302-1.946 1.302-1.33 0-2.072-1.106-2.128-2.31h5.292c.014-.154.014-.322.014-.392 0-2.338-1.344-3.514-3.136-3.514-1.904 0-3.262 1.386-3.262 3.556Zm1.106-.504c.182-1.372 1.008-2.142 2.17-2.142 1.12 0 1.974.742 2.03 2.142h-4.2Zm13.149 4.074c1.932 0 3.304-1.344 3.304-3.556 0-2.212-1.372-3.57-3.304-3.57-1.932 0-3.304 1.358-3.304 3.57 0 2.212 1.372 3.556 3.304 3.556Zm0-.924c-1.428 0-2.198-1.106-2.198-2.632s.77-2.646 2.198-2.646 2.198 1.12 2.198 2.646c0 1.526-.77 2.632-2.198 2.632Zm8.532-8.946a4.595 4.595 0 0 0-.882-.084c-1.288 0-2.128.742-2.128 2.184v.77h-1.134v.924h1.134V453h1.05v-5.95h1.96v-.924h-1.96v-.728c0-.91.392-1.274 1.148-1.274.252 0 .686.056.812.084v-.952Zm.872 3.794h1.134v4.018c0 1.316.686 2.03 1.834 2.03.378 0 .77-.042 1.176-.126v-.952a4.229 4.229 0 0 1-1.008.126c-.686 0-.952-.462-.952-1.288v-3.808h1.96v-.924h-1.96v-1.82h-1.008v1.82h-1.176v.924Zm5.27 2.506c0 2.254 1.4 3.57 3.248 3.57 1.47 0 2.716-.728 3.024-2.212h-1.106c-.252.882-1.022 1.302-1.946 1.302-1.33 0-2.072-1.106-2.128-2.31h5.292c.014-.154.014-.322.014-.392 0-2.338-1.344-3.514-3.136-3.514-1.904 0-3.262 1.386-3.262 3.556Zm1.106-.504c.182-1.372 1.008-2.142 2.17-2.142 1.12 0 1.974.742 2.03 2.142h-4.2Zm8.227 3.948v-3.85c0-1.204.728-2.226 2.016-2.226.994 0 1.652.518 1.652 1.974V453h1.05v-4.326c0-1.652-.882-2.674-2.436-2.674-1.078 0-1.82.42-2.324 1.162v-1.036h-1.008V453h1.05Zm14.628-6.874v3.85c0 1.204-.714 2.226-1.96 2.226-.952 0-1.596-.518-1.596-1.974v-4.102h-1.05v4.326c0 1.652.868 2.674 2.38 2.674 1.05 0 1.778-.42 2.268-1.162V453h1.008v-6.874h-1.05Zm3.157 1.876c0 1.022.644 1.624 1.904 1.876l1.414.28c.742.154 1.134.462 1.134.966 0 .63-.462 1.106-1.708 1.106-1.19 0-1.806-.518-1.862-1.316h-1.092c.014 1.344 1.19 2.212 2.926 2.212 1.75 0 2.814-.854 2.814-2.044 0-1.022-.644-1.624-1.904-1.876l-1.414-.28c-.742-.154-1.134-.462-1.134-.966 0-.616.616-1.064 1.596-1.064.938 0 1.596.406 1.638 1.204h1.092c-.042-1.428-1.358-2.1-2.73-2.1-1.54 0-2.674.784-2.674 2.002Zm6.953 1.554c0 2.254 1.4 3.57 3.248 3.57 1.47 0 2.716-.728 3.024-2.212h-1.106c-.252.882-1.022 1.302-1.946 1.302-1.33 0-2.072-1.106-2.128-2.31h5.292c.014-.154.014-.322.014-.392 0-2.338-1.344-3.514-3.136-3.514-1.904 0-3.262 1.386-3.262 3.556Zm1.106-.504c.182-1.372 1.008-2.142 2.17-2.142 1.12 0 1.974.742 2.03 2.142h-4.2Zm9.794-3.052c-1.666 0-3.08 1.274-3.08 3.57s1.442 3.556 3.052 3.556c1.022 0 1.862-.364 2.38-1.134V453h1.008v-9.716h-1.05v3.836c-.56-.784-1.372-1.12-2.31-1.12Zm.224.924c1.428 0 2.198 1.12 2.198 2.646 0 1.526-.77 2.632-2.198 2.632s-2.198-1.106-2.198-2.632.77-2.646 2.198-2.646Zm14.02 6.076v-4.69c0-1.638-1.19-2.31-2.814-2.31-1.372 0-2.73.616-2.786 2.1h1.092c.042-.798.686-1.19 1.694-1.19 1.036 0 1.792.378 1.792 1.4v.364l-2.618.448c-1.19.21-2.198.812-2.198 2.058 0 1.302 1.092 1.946 2.31 1.946.966 0 1.974-.322 2.548-1.19V453h.98Zm-3.388-.77c-.882 0-1.372-.406-1.372-1.036 0-.672.42-1.078 1.358-1.246l2.38-.406v.532c0 1.512-1.162 2.156-2.366 2.156Zm5.402-4.228c0 1.022.644 1.624 1.904 1.876l1.414.28c.742.154 1.134.462 1.134.966 0 .63-.462 1.106-1.708 1.106-1.19 0-1.806-.518-1.862-1.316h-1.092c.014 1.344 1.19 2.212 2.926 2.212 1.75 0 2.814-.854 2.814-2.044 0-1.022-.644-1.624-1.904-1.876l-1.414-.28c-.742-.154-1.134-.462-1.134-.966 0-.616.616-1.064 1.596-1.064.938 0 1.596.406 1.638 1.204h1.092c-.042-1.428-1.358-2.1-2.73-2.1-1.54 0-2.674.784-2.674 2.002Zm10.35 0c0 1.022.644 1.624 1.904 1.876l1.414.28c.742.154 1.134.462 1.134.966 0 .63-.462 1.106-1.708 1.106-1.19 0-1.806-.518-1.862-1.316h-1.092c.014 1.344 1.19 2.212 2.926 2.212 1.75 0 2.814-.854 2.814-2.044 0-1.022-.644-1.624-1.904-1.876l-1.414-.28c-.742-.154-1.134-.462-1.134-.966 0-.616.616-1.064 1.596-1.064.938 0 1.596.406 1.638 1.204h1.092c-.042-1.428-1.358-2.1-2.73-2.1-1.54 0-2.674.784-2.674 2.002Zm7.429-1.876V453h1.05v-6.874h-1.05Zm-.112-1.288h1.274v-1.274h-1.274v1.274Zm3.111 1.288v.938h3.934l-4.102 5.18V453h5.46v-.938h-4.032l4.102-5.18v-.756h-5.362Zm7.186 0V453h1.05v-6.874h-1.05Zm-.112-1.288h1.274v-1.274h-1.274v1.274Zm4.539 8.162v-3.85c0-1.204.728-2.226 2.016-2.226.994 0 1.652.518 1.652 1.974V453h1.05v-4.326c0-1.652-.882-2.674-2.436-2.674-1.078 0-1.82.42-2.324 1.162v-1.036h-1.008V453h1.05Zm12.814-6.874h-1.008v.938c-.518-.7-1.302-1.064-2.226-1.064-1.596 0-3.08 1.19-3.08 3.43 0 2.212 1.54 3.374 3.122 3.374.868 0 1.61-.336 2.142-.98v.952c0 1.414-.938 1.904-2.086 1.904-1.036 0-1.792-.378-1.862-1.232h-1.092c.028 1.218 1.064 2.142 2.982 2.142 1.862 0 3.108-.952 3.108-2.814v-6.65Zm-5.222 3.276c0-1.442.742-2.492 2.128-2.492 1.4 0 2.142 1.05 2.142 2.492 0 1.456-.742 2.492-2.142 2.492-1.386 0-2.128-1.036-2.128-2.492Zm14.12-6.146a4.595 4.595 0 0 0-.882-.084c-1.288 0-2.128.742-2.128 2.184v.77h-1.134v.924h1.134V453h1.05v-5.95h1.96v-.924h-1.96v-.728c0-.91.392-1.274 1.148-1.274.252 0 .686.056.812.084v-.952Zm4.252 9.87c1.932 0 3.304-1.344 3.304-3.556 0-2.212-1.372-3.57-3.304-3.57-1.932 0-3.304 1.358-3.304 3.57 0 2.212 1.372 3.556 3.304 3.556Zm0-.924c-1.428 0-2.198-1.106-2.198-2.632s.77-2.646 2.198-2.646 2.198 1.12 2.198 2.646c0 1.526-.77 2.632-2.198 2.632Zm8.824-6.174c-.238-.014-.364-.014-.49-.014-.812 0-1.722.406-2.17 1.372v-1.26h-1.008V453h1.05v-3.794c0-1.33.896-2.086 1.974-2.086.182 0 .392 0 .644.014v-1.106Zm5.275 3.528c0-1.526.77-2.632 2.198-2.632.924 0 1.722.532 1.848 1.526h1.092c-.168-1.498-1.316-2.45-2.94-2.45-1.932 0-3.304 1.344-3.304 3.556 0 2.212 1.372 3.57 3.304 3.57 1.624 0 2.772-.952 2.94-2.45h-1.092c-.126.994-.924 1.526-1.848 1.526-1.428 0-2.198-1.12-2.198-2.646ZM266.072 453v-4.69c0-1.638-1.19-2.31-2.814-2.31-1.372 0-2.73.616-2.786 2.1h1.092c.042-.798.686-1.19 1.694-1.19 1.036 0 1.792.378 1.792 1.4v.364l-2.618.448c-1.19.21-2.198.812-2.198 2.058 0 1.302 1.092 1.946 2.31 1.946.966 0 1.974-.322 2.548-1.19V453h.98Zm-3.388-.77c-.882 0-1.372-.406-1.372-1.036 0-.672.42-1.078 1.358-1.246l2.38-.406v.532c0 1.512-1.162 2.156-2.366 2.156Zm5.402-4.228c0 1.022.644 1.624 1.904 1.876l1.414.28c.742.154 1.134.462 1.134.966 0 .63-.462 1.106-1.708 1.106-1.19 0-1.806-.518-1.862-1.316h-1.092c.014 1.344 1.19 2.212 2.926 2.212 1.75 0 2.814-.854 2.814-2.044 0-1.022-.644-1.624-1.904-1.876l-1.414-.28c-.742-.154-1.134-.462-1.134-.966 0-.616.616-1.064 1.596-1.064.938 0 1.596.406 1.638 1.204h1.092c-.042-1.428-1.358-2.1-2.73-2.1-1.54 0-2.674.784-2.674 2.002Zm11.952-1.876v3.85c0 1.204-.714 2.226-1.96 2.226-.952 0-1.596-.518-1.596-1.974v-4.102h-1.05v4.326c0 1.652.868 2.674 2.38 2.674 1.05 0 1.778-.42 2.268-1.162V453h1.008v-6.874h-1.05Zm8.798 6.874v-4.69c0-1.638-1.19-2.31-2.814-2.31-1.372 0-2.73.616-2.786 2.1h1.092c.042-.798.686-1.19 1.694-1.19 1.036 0 1.792.378 1.792 1.4v.364l-2.618.448c-1.19.21-2.198.812-2.198 2.058 0 1.302 1.092 1.946 2.31 1.946.966 0 1.974-.322 2.548-1.19V453h.98Zm-3.388-.77c-.882 0-1.372-.406-1.372-1.036 0-.672.42-1.078 1.358-1.246l2.38-.406v.532c0 1.512-1.162 2.156-2.366 2.156Zm5.626-8.946V453h1.05v-9.716h-1.05Zm11.94 9.716v-4.69c0-1.638-1.19-2.31-2.814-2.31-1.372 0-2.73.616-2.786 2.1h1.092c.042-.798.686-1.19 1.694-1.19 1.036 0 1.792.378 1.792 1.4v.364l-2.618.448c-1.19.21-2.198.812-2.198 2.058 0 1.302 1.092 1.946 2.31 1.946.966 0 1.974-.322 2.548-1.19V453h.98Zm-3.388-.77c-.882 0-1.372-.406-1.372-1.036 0-.672.42-1.078 1.358-1.246l2.38-.406v.532c0 1.512-1.162 2.156-2.366 2.156Zm6.676.77v-3.85c0-1.204.728-2.226 2.016-2.226.994 0 1.652.518 1.652 1.974V453h1.05v-4.326c0-1.652-.882-2.674-2.436-2.674-1.078 0-1.82.42-2.324 1.162v-1.036h-1.008V453h1.05Zm9.58-7c-1.666 0-3.08 1.274-3.08 3.57s1.442 3.556 3.052 3.556c1.022 0 1.862-.364 2.38-1.134V453h1.008v-9.716h-1.05v3.836c-.56-.784-1.372-1.12-2.31-1.12Zm.224.924c1.428 0 2.198 1.12 2.198 2.646 0 1.526-.77 2.632-2.198 2.632s-2.198-1.106-2.198-2.632.77-2.646 2.198-2.646Zm8.601-3.64V453h1.05v-9.716h-1.05Zm6.205 9.842c1.932 0 3.304-1.344 3.304-3.556 0-2.212-1.372-3.57-3.304-3.57-1.932 0-3.304 1.358-3.304 3.57 0 2.212 1.372 3.556 3.304 3.556Zm0-.924c-1.428 0-2.198-1.106-2.198-2.632s.77-2.646 2.198-2.646 2.198 1.12 2.198 2.646c0 1.526-.77 2.632-2.198 2.632Zm7.984.924c1.932 0 3.304-1.344 3.304-3.556 0-2.212-1.372-3.57-3.304-3.57-1.932 0-3.304 1.358-3.304 3.57 0 2.212 1.372 3.556 3.304 3.556Zm0-.924c-1.428 0-2.198-1.106-2.198-2.632s.77-2.646 2.198-2.646 2.198 1.12 2.198 2.646c0 1.526-.77 2.632-2.198 2.632Zm4.933-4.2c0 1.022.644 1.624 1.904 1.876l1.414.28c.742.154 1.134.462 1.134.966 0 .63-.462 1.106-1.708 1.106-1.19 0-1.806-.518-1.862-1.316h-1.092c.014 1.344 1.19 2.212 2.926 2.212 1.75 0 2.814-.854 2.814-2.044 0-1.022-.644-1.624-1.904-1.876l-1.414-.28c-.742-.154-1.134-.462-1.134-.966 0-.616.616-1.064 1.596-1.064.938 0 1.596.406 1.638 1.204h1.092c-.042-1.428-1.358-2.1-2.73-2.1-1.54 0-2.674.784-2.674 2.002Zm6.953 1.554c0 2.254 1.4 3.57 3.248 3.57 1.47 0 2.716-.728 3.024-2.212h-1.106c-.252.882-1.022 1.302-1.946 1.302-1.33 0-2.072-1.106-2.128-2.31h5.292c.014-.154.014-.322.014-.392 0-2.338-1.344-3.514-3.136-3.514-1.904 0-3.262 1.386-3.262 3.556Zm1.106-.504c.182-1.372 1.008-2.142 2.17-2.142 1.12 0 1.974.742 2.03 2.142h-4.2Zm7.1.714h3.696v-1.022h-3.696v1.022Zm9.125-6.51a4.595 4.595 0 0 0-.882-.084c-1.288 0-2.128.742-2.128 2.184v.77h-1.134v.924h1.134V453h1.05v-5.95h1.96v-.924h-1.96v-.728c0-.91.392-1.274 1.148-1.274.252 0 .686.056.812.084v-.952Zm1.554 2.87V453h1.05v-6.874h-1.05Zm-.112-1.288h1.274v-1.274h-1.274v1.274Zm2.726 2.212h1.134v4.018c0 1.316.686 2.03 1.834 2.03.378 0 .77-.042 1.176-.126v-.952a4.229 4.229 0 0 1-1.008.126c-.686 0-.952-.462-.952-1.288v-3.808h1.96v-.924h-1.96v-1.82h-1.008v1.82h-1.176v.924Zm5.113 0h1.134v4.018c0 1.316.686 2.03 1.834 2.03.378 0 .77-.042 1.176-.126v-.952a4.229 4.229 0 0 1-1.008.126c-.686 0-.952-.462-.952-1.288v-3.808h1.96v-.924h-1.96v-1.82h-1.008v1.82h-1.176v.924Zm5.87-.924V453h1.05v-6.874h-1.05Zm-.112-1.288h1.274v-1.274h-1.274v1.274Zm4.539 8.162v-3.85c0-1.204.728-2.226 2.016-2.226.994 0 1.652.518 1.652 1.974V453h1.05v-4.326c0-1.652-.882-2.674-2.436-2.674-1.078 0-1.82.42-2.324 1.162v-1.036h-1.008V453h1.05Zm12.813-6.874h-1.008v.938c-.518-.7-1.302-1.064-2.226-1.064-1.596 0-3.08 1.19-3.08 3.43 0 2.212 1.54 3.374 3.122 3.374.868 0 1.61-.336 2.142-.98v.952c0 1.414-.938 1.904-2.086 1.904-1.036 0-1.792-.378-1.862-1.232h-1.092c.028 1.218 1.064 2.142 2.982 2.142 1.862 0 3.108-.952 3.108-2.814v-6.65Zm-5.222 3.276c0-1.442.742-2.492 2.128-2.492 1.4 0 2.142 1.05 2.142 2.492 0 1.456-.742 2.492-2.142 2.492-1.386 0-2.128-1.036-2.128-2.492Zm11.321.154c0-1.526.77-2.632 2.198-2.632.924 0 1.722.532 1.848 1.526h1.092c-.168-1.498-1.316-2.45-2.94-2.45-1.932 0-3.304 1.344-3.304 3.556 0 2.212 1.372 3.57 3.304 3.57 1.624 0 2.772-.952 2.94-2.45h-1.092c-.126.994-.924 1.526-1.848 1.526-1.428 0-2.198-1.12-2.198-2.646Zm7.053-6.272V453h1.05v-9.716h-1.05Zm6.205 9.842c1.932 0 3.304-1.344 3.304-3.556 0-2.212-1.372-3.57-3.304-3.57-1.932 0-3.304 1.358-3.304 3.57 0 2.212 1.372 3.556 3.304 3.556Zm0-.924c-1.428 0-2.198-1.106-2.198-2.632s.77-2.646 2.198-2.646 2.198 1.12 2.198 2.646c0 1.526-.77 2.632-2.198 2.632Zm4.359-5.152h1.134v4.018c0 1.316.686 2.03 1.834 2.03.378 0 .77-.042 1.176-.126v-.952a4.229 4.229 0 0 1-1.008.126c-.686 0-.952-.462-.952-1.288v-3.808h1.96v-.924h-1.96v-1.82h-1.008v1.82h-1.176v.924Zm10.588 5.95h1.05v-4.326c0-1.652-.882-2.674-2.436-2.674-.952 0-1.75.336-2.282 1.12v-3.836h-1.05V453h1.05v-3.85c0-1.204.728-2.226 2.016-2.226.994 0 1.652.518 1.652 1.974V453Zm3.293-6.874V453h1.05v-6.874h-1.05Zm-.112-1.288h1.274v-1.274h-1.274v1.274Zm4.539 8.162v-3.85c0-1.204.728-2.226 2.016-2.226.994 0 1.652.518 1.652 1.974V453h1.05v-4.326c0-1.652-.882-2.674-2.436-2.674-1.078 0-1.82.42-2.324 1.162v-1.036h-1.008V453h1.05Zm12.814-6.874h-1.008v.938c-.518-.7-1.302-1.064-2.226-1.064-1.596 0-3.08 1.19-3.08 3.43 0 2.212 1.54 3.374 3.122 3.374.868 0 1.61-.336 2.142-.98v.952c0 1.414-.938 1.904-2.086 1.904-1.036 0-1.792-.378-1.862-1.232h-1.092c.028 1.218 1.064 2.142 2.982 2.142 1.862 0 3.108-.952 3.108-2.814v-6.65Zm-5.222 3.276c0-1.442.742-2.492 2.128-2.492 1.4 0 2.142 1.05 2.142 2.492 0 1.456-.742 2.492-2.142 2.492-1.386 0-2.128-1.036-2.128-2.492Zm7.504 3.598h1.498v-1.498h-1.498V453ZM70.088 100.154c2.002 0 3.234-1.218 3.234-2.842 0-1.386-.91-2.156-1.82-2.338.924-.35 1.582-1.218 1.582-2.226 0-1.386-1.078-2.618-2.968-2.618-1.988 0-3.08 1.162-3.178 2.87h1.148c.056-1.148.812-1.904 2.002-1.904 1.092 0 1.876.658 1.876 1.652 0 .924-.658 1.806-2.226 1.806H69.5v.98h.35c1.596 0 2.352.602 2.352 1.778 0 1.092-.84 1.876-2.114 1.876-1.344 0-2.086-.798-2.142-1.904h-1.148c.042 1.764 1.316 2.87 3.29 2.87Zm5.977-.154h6.146v-1.022h-4.76l2.982-3.136c.798-.854 1.624-1.918 1.624-3.08 0-1.4-1.106-2.632-2.996-2.632-1.876 0-3.136 1.134-3.164 3.136h1.148c0-1.442.84-2.156 2.016-2.156 1.092 0 1.876.658 1.876 1.652 0 .924-.56 1.666-1.232 2.366l-3.64 3.836V100ZM364.06 116.154c2.31 0 3.71-1.134 3.71-2.73 0-1.372-.812-2.226-2.142-2.534l-2.688-.63c-.994-.224-1.372-.784-1.372-1.456 0-1.022.98-1.694 2.352-1.694 1.302 0 2.31.588 2.422 1.918h1.176c-.014-1.792-1.582-2.898-3.612-2.898-1.988 0-3.458 1.092-3.458 2.674 0 1.372.812 2.212 2.142 2.52l2.688.63c.994.238 1.372.784 1.372 1.456 0 1.05-1.022 1.764-2.562 1.764-1.526 0-2.66-.756-2.772-2.016h-1.176c.084 1.96 1.638 2.996 3.92 2.996ZM205.694 63l2.926-3.99 2.87 3.99h1.4l-3.598-4.858 3.598-4.858h-1.344l-2.926 4.004-2.87-4.004h-1.4l3.598 4.872L204.35 63h1.344Zm10.082 0 2.926-3.99 2.87 3.99h1.4l-3.598-4.858 3.598-4.858h-1.344l-2.926 4.004-2.87-4.004h-1.4l3.598 4.872L214.432 63h1.344Zm12.858.154c2.31 0 3.71-1.134 3.71-2.73 0-1.372-.812-2.226-2.142-2.534l-2.688-.63c-.994-.224-1.372-.784-1.372-1.456 0-1.022.98-1.694 2.352-1.694 1.302 0 2.31.588 2.422 1.918h1.176c-.014-1.792-1.582-2.898-3.612-2.898-1.988 0-3.458 1.092-3.458 2.674 0 1.372.812 2.212 2.142 2.52l2.688.63c.994.238 1.372.784 1.372 1.456 0 1.05-1.022 1.764-2.562 1.764-1.526 0-2.66-.756-2.772-2.016h-1.176c.084 1.96 1.638 2.996 3.92 2.996ZM211.694 117l2.926-3.99 2.87 3.99h1.4l-3.598-4.858 3.598-4.858h-1.344l-2.926 4.004-2.87-4.004h-1.4l3.598 4.872L210.35 117h1.344Zm12.858.154c2.31 0 3.71-1.134 3.71-2.73 0-1.372-.812-2.226-2.142-2.534l-2.688-.63c-.994-.224-1.372-.784-1.372-1.456 0-1.022.98-1.694 2.352-1.694 1.302 0 2.31.588 2.422 1.918h1.176c-.014-1.792-1.582-2.898-3.612-2.898-1.988 0-3.458 1.092-3.458 2.674 0 1.372.812 2.212 2.142 2.52l2.688.63c.994.238 1.372.784 1.372 1.456 0 1.05-1.022 1.764-2.562 1.764-1.526 0-2.66-.756-2.772-2.016h-1.176c.084 1.96 1.638 2.996 3.92 2.996ZM220.62 174.154c2.31 0 3.71-1.134 3.71-2.73 0-1.372-.812-2.226-2.142-2.534l-2.688-.63c-.994-.224-1.372-.784-1.372-1.456 0-1.022.98-1.694 2.352-1.694 1.302 0 2.31.588 2.422 1.918h1.176c-.014-1.792-1.582-2.898-3.612-2.898-1.988 0-3.458 1.092-3.458 2.674 0 1.372.812 2.212 2.142 2.52l2.688.63c.994.238 1.372.784 1.372 1.456 0 1.05-1.022 1.764-2.562 1.764-1.526 0-2.66-.756-2.772-2.016H216.7c.084 1.96 1.638 2.996 3.92 2.996ZM218.656 227h1.386l3.262-8.554V227h1.106v-9.716h-1.75l-3.304 8.652-3.304-8.652h-1.764V227h1.106v-8.554l3.262 8.554ZM217.302 280h6.37v-1.036h-5.236v-8.68h-1.134V280ZM211.694 335l2.926-3.99 2.87 3.99h1.4l-3.598-4.858 3.598-4.858h-1.344l-2.926 4.004-2.87-4.004h-1.4l3.598 4.872L210.35 335h1.344Zm9.69 0h6.37v-1.036h-5.236v-8.68h-1.134V335ZM205.694 387l2.926-3.99 2.87 3.99h1.4l-3.598-4.858 3.598-4.858h-1.344l-2.926 4.004-2.87-4.004h-1.4l3.598 4.872L204.35 387h1.344Zm10.082 0 2.926-3.99 2.87 3.99h1.4l-3.598-4.858 3.598-4.858h-1.344l-2.926 4.004-2.87-4.004h-1.4l3.598 4.872-3.598 4.844h1.344Zm9.69 0h6.37v-1.036H226.6v-8.68h-1.134V387ZM363.805 245h1.386l3.262-8.554V245h1.106v-9.716h-1.75l-3.304 8.652-3.304-8.652h-1.764V245h1.106v-8.554l3.262 8.554ZM361.707 352h6.37v-1.036h-5.236v-8.68h-1.134V352ZM70.088 136.154c2.002 0 3.234-1.218 3.234-2.842 0-1.386-.91-2.156-1.82-2.338.924-.35 1.582-1.218 1.582-2.226 0-1.386-1.078-2.618-2.968-2.618-1.988 0-3.08 1.162-3.178 2.87h1.148c.056-1.148.812-1.904 2.002-1.904 1.092 0 1.876.658 1.876 1.652 0 .924-.658 1.806-2.226 1.806H69.5v.98h.35c1.596 0 2.352.602 2.352 1.778 0 1.092-.84 1.876-2.114 1.876-1.344 0-2.086-.798-2.142-1.904h-1.148c.042 1.764 1.316 2.87 3.29 2.87ZM81.721 136v-2.268h1.4v-.98h-1.4v-6.468h-1.372l-4.592 6.468v.98h4.9V136h1.064Zm-1.064-3.248h-3.682l3.682-5.18v5.18ZM70.088 172.154c2.002 0 3.234-1.218 3.234-2.842 0-1.386-.91-2.156-1.82-2.338.924-.35 1.582-1.218 1.582-2.226 0-1.386-1.078-2.618-2.968-2.618-1.988 0-3.08 1.162-3.178 2.87h1.148c.056-1.148.812-1.904 2.002-1.904 1.092 0 1.876.658 1.876 1.652 0 .924-.658 1.806-2.226 1.806H69.5v.98h.35c1.596 0 2.352.602 2.352 1.778 0 1.092-.84 1.876-2.114 1.876-1.344 0-2.086-.798-2.142-1.904h-1.148c.042 1.764 1.316 2.87 3.29 2.87Zm9.295 0c1.834 0 3.276-1.19 3.276-3.304 0-1.988-1.4-3.178-3.094-3.178-1.12 0-2.128.532-2.59 1.596.042-3.206 1.162-4.172 2.45-4.172 1.092 0 1.722.63 1.806 1.512h1.134c-.042-1.372-1.148-2.478-2.912-2.478-1.82 0-3.528 1.232-3.528 4.928 0 3.71 1.484 5.096 3.458 5.096Zm-.028-.966c-1.26 0-2.058-.924-2.058-2.31 0-1.19.84-2.24 2.156-2.24 1.204 0 2.086.882 2.086 2.24 0 1.386-.826 2.31-2.184 2.31ZM70.088 208.154c2.002 0 3.234-1.218 3.234-2.842 0-1.386-.91-2.156-1.82-2.338.924-.35 1.582-1.218 1.582-2.226 0-1.386-1.078-2.618-2.968-2.618-1.988 0-3.08 1.162-3.178 2.87h1.148c.056-1.148.812-1.904 2.002-1.904 1.092 0 1.876.658 1.876 1.652 0 .924-.658 1.806-2.226 1.806H69.5v.98h.35c1.596 0 2.352.602 2.352 1.778 0 1.092-.84 1.876-2.114 1.876-1.344 0-2.086-.798-2.142-1.904h-1.148c.042 1.764 1.316 2.87 3.29 2.87Zm9.225 0c2.072 0 3.346-1.106 3.346-2.772 0-1.064-.7-2.072-1.764-2.394.924-.434 1.428-1.358 1.428-2.184 0-1.47-1.176-2.674-3.01-2.674-1.834 0-3.01 1.204-3.01 2.674 0 .826.504 1.75 1.428 2.184-1.064.322-1.764 1.33-1.764 2.394 0 1.666 1.274 2.772 3.346 2.772Zm0-.952c-1.4 0-2.212-.812-2.212-1.862s.812-1.862 2.212-1.862c1.4 0 2.212.812 2.212 1.862s-.812 1.862-2.212 1.862Zm0-4.662c-1.162 0-1.904-.756-1.904-1.764 0-.966.742-1.694 1.904-1.694s1.904.728 1.904 1.694c0 1.008-.742 1.764-1.904 1.764ZM72.664 244v-2.268h1.4v-.98h-1.4v-6.468h-1.372l-4.592 6.468v.98h4.9V244h1.064Zm-1.064-3.248h-3.682l3.682-5.18v5.18Zm8.412 3.402c2.016 0 3.472-1.498 3.472-5.012 0-3.514-1.456-5.012-3.472-5.012s-3.472 1.498-3.472 5.012c0 3.514 1.456 5.012 3.472 5.012Zm0-.98c-1.428 0-2.324-1.26-2.324-4.032 0-2.772.896-4.032 2.324-4.032s2.324 1.26 2.324 4.032c0 2.772-.896 4.032-2.324 4.032ZM72.664 280v-2.268h1.4v-.98h-1.4v-6.468h-1.372l-4.592 6.468v.98h4.9V280h1.064Zm-1.064-3.248h-3.682l3.682-5.18v5.18ZM76.625 280h6.146v-1.022h-4.76l2.982-3.136c.798-.854 1.624-1.918 1.624-3.08 0-1.4-1.106-2.632-2.996-2.632-1.876 0-3.136 1.134-3.164 3.136h1.148c0-1.442.84-2.156 2.016-2.156 1.092 0 1.876.658 1.876 1.652 0 .924-.56 1.666-1.232 2.366l-3.64 3.836V280ZM72.664 316v-2.268h1.4v-.98h-1.4v-6.468h-1.372l-4.592 6.468v.98h4.9V316h1.064Zm-1.064-3.248h-3.682l3.682-5.18v5.18ZM82.336 316v-2.268h1.4v-.98h-1.4v-6.468h-1.372l-4.592 6.468v.98h4.9V316h1.064Zm-1.064-3.248H77.59l3.682-5.18v5.18ZM72.664 352v-2.268h1.4v-.98h-1.4v-6.468h-1.372l-4.592 6.468v.98h4.9V352h1.064Zm-1.064-3.248h-3.682l3.682-5.18v5.18Zm8.398 3.402c1.834 0 3.276-1.19 3.276-3.304 0-1.988-1.4-3.178-3.094-3.178-1.12 0-2.128.532-2.59 1.596.042-3.206 1.162-4.172 2.45-4.172 1.092 0 1.722.63 1.806 1.512h1.134c-.042-1.372-1.148-2.478-2.912-2.478-1.82 0-3.528 1.232-3.528 4.928 0 3.71 1.484 5.096 3.458 5.096Zm-.028-.966c-1.26 0-2.058-.924-2.058-2.31 0-1.19.84-2.24 2.156-2.24 1.204 0 2.086.882 2.086 2.24 0 1.386-.826 2.31-2.184 2.31ZM623.928 20h.558l3.816-11.142c.108-.324.18-.342.504-.54l1.35-.828v-.144h-4.23v.144l1.566.864c.288.162.36.216.252.504l-3.114 9.072-2.898-9.414c-.072-.216-.054-.288.108-.36l1.566-.666v-.144h-4.464v.144l.936.54c.216.126.324.234.414.522l.45 1.422-2.7 7.992-3.186-9.45c-.072-.216-.054-.288.108-.36l1.566-.666v-.144h-4.5v.144l.972.558c.234.126.288.216.396.522L617.322 20h.576l3.114-9.18 2.916 9.18Zm11.471.18c.612 0 1.044-.36 1.26-.81.072-.18.126-.36.144-.54l-.09-.054c-.126.306-.378.54-.756.54-.414 0-.666-.342-.666-1.008 0-1.152.072-2.808.072-4.176 0-1.098-.288-1.872-.828-2.358-.504-.522-1.26-.702-2.358-.702-.9 0-1.674.162-2.628.54l.612 2.322h.108l.81-2.142c.036-.108.108-.162.216-.198.162-.036.414-.072.702-.072 1.494 0 2.142.9 2.142 2.43 0 .45 0 1.044-.018 1.656-.54-.27-1.17-.378-1.746-.378-1.782 0-3.24 1.008-3.24 2.682 0 1.404 1.044 2.268 2.376 2.268 1.206 0 2.142-.738 2.574-1.782.036 1.17.522 1.782 1.314 1.782Zm-4.95-2.394c0-1.116.828-2.034 2.358-2.034.378 0 .882.072 1.314.216l-.036 1.872c-.45.954-1.26 1.476-2.088 1.476-.828 0-1.548-.522-1.548-1.53ZM637.248 20h4.536v-.126l-1.404-.63c-.198-.09-.216-.162-.216-.36v-7.632h-2.916v.126l1.44.828c.18.108.198.18.198.396v6.282c0 .198-.036.27-.234.36l-1.404.63V20Zm1.134-11.322c0 .54.432.972.954.972a.972.972 0 1 0 0-1.944.964.964 0 0 0-.954.972Zm7.239 11.502c1.8 0 3.294-.99 3.294-2.628 0-1.17-.738-1.854-1.944-2.304l-1.404-.522c-.936-.342-1.512-.792-1.512-1.602 0-.936.81-1.638 1.98-1.638.252 0 .432.018.684.072.216.054.306.09.378.27l.774 1.98h.108l.594-2.268c-.9-.324-1.8-.468-2.538-.468-1.728 0-3.06 1.008-3.06 2.484 0 1.116.738 1.854 1.908 2.304l1.332.504c.99.378 1.512.792 1.512 1.62 0 1.062-.846 1.764-2.124 1.764-.396 0-.81-.054-1.062-.126-.198-.054-.27-.108-.342-.306l-.702-2.142h-.108l-.648 2.466c.882.324 1.962.54 2.88.54Zm7.72 0c1.152 0 1.944-.738 2.232-1.854l-.108-.036c-.288.576-.846 1.044-1.566 1.044-.792 0-1.296-.54-1.296-1.44v-6.12h2.952v-.522h-2.952V8.246h-.126l-1.062 2.7c-.108.27-.144.306-.414.306h-1.116v.522h1.44v6.264c0 1.458.792 2.142 2.016 2.142Zm8.934-5.67c.054-2.718 1.062-5.202 2.664-7.308h-1.44c-1.494 1.998-2.574 4.698-2.574 7.308 0 2.61 1.08 5.31 2.574 7.308h1.44c-1.602-2.106-2.61-4.59-2.664-7.308Zm4.971 1.062c0-1.962.99-3.384 2.826-3.384 1.188 0 2.214.684 2.376 1.962h1.404c-.216-1.926-1.692-3.15-3.78-3.15-2.484 0-4.248 1.728-4.248 4.572 0 2.844 1.764 4.59 4.248 4.59 2.088 0 3.564-1.224 3.78-3.15h-1.404c-.162 1.278-1.188 1.962-2.376 1.962-1.836 0-2.826-1.44-2.826-3.402Zm21.777-1.152c0-2.394-1.314-3.42-3.06-3.42-1.422 0-2.322.612-2.97 1.566-.486-1.008-1.404-1.566-2.7-1.566-1.314 0-2.178.684-2.682 1.476v-1.314h-1.296V20h1.35v-4.95c0-1.8 1.062-2.862 2.286-2.862 1.368 0 2.052.72 2.052 2.412V20h1.35v-5.256c0-1.692 1.152-2.556 2.286-2.556 1.332 0 2.052.72 2.052 2.286V20h1.332v-5.58Zm4.414.09c-.054 2.718-1.062 5.202-2.664 7.308h1.44c1.494-1.998 2.574-4.698 2.574-7.308 0-2.61-1.08-5.31-2.574-7.308h-1.44c1.602 2.106 2.61 4.59 2.664 7.308ZM766.576 20h5.274v-.144l-1.71-.684c-.216-.09-.234-.126-.234-.342v-5.04h6.174v5.04c0 .216-.036.27-.234.342l-1.71.684V20h5.274v-.144l-1.692-.684c-.216-.09-.252-.126-.252-.342V8.498c0-.198.036-.252.252-.342l1.692-.666v-.144h-5.274v.144l1.71.666c.198.072.234.144.234.342v4.788h-6.174V8.498c0-.198.018-.252.234-.342l1.71-.666v-.144h-5.274v.144l1.692.666c.216.09.252.144.252.342V18.83c0 .216-.036.252-.252.342l-1.692.684V20Zm13.621 0h4.536v-.126l-1.404-.63c-.198-.09-.216-.162-.216-.36v-7.632h-2.916v.126l1.44.828c.18.108.198.18.198.396v6.282c0 .198-.036.27-.234.36l-1.404.63V20Zm1.134-11.322c0 .54.432.972.954.972a.972.972 0 1 0 0-1.944.964.964 0 0 0-.954.972Zm3.802 15.318h5.076v-.126l-1.944-.684c-.198-.072-.234-.126-.234-.342v-3.798c.45.666 1.242 1.134 2.322 1.134 1.998 0 3.672-1.674 3.69-4.626 0-2.718-1.368-4.482-3.33-4.482-1.188 0-2.07.54-2.718 1.926v-1.746h-2.862v.126l1.44.828c.162.108.198.18.198.396v10.296c0 .198-.036.27-.234.36l-1.404.612v.126Zm2.898-5.508v-5.004c.54-1.062 1.314-1.602 2.214-1.602 1.494 0 2.394 1.566 2.394 3.744-.018 2.394-.954 3.906-2.574 3.906-.828 0-1.53-.342-2.034-1.044Zm13.238-3.978c.054-2.718 1.062-5.202 2.664-7.308h-1.44c-1.494 1.998-2.574 4.698-2.574 7.308 0 2.61 1.08 5.31 2.574 7.308h1.44c-1.602-2.106-2.61-4.59-2.664-7.308Zm4.972 1.062c0-1.962.99-3.384 2.826-3.384 1.188 0 2.214.684 2.376 1.962h1.404c-.216-1.926-1.692-3.15-3.78-3.15-2.484 0-4.248 1.728-4.248 4.572 0 2.844 1.764 4.59 4.248 4.59 2.088 0 3.564-1.224 3.78-3.15h-1.404c-.162 1.278-1.188 1.962-2.376 1.962-1.836 0-2.826-1.44-2.826-3.402Zm21.776-1.152c0-2.394-1.314-3.42-3.06-3.42-1.422 0-2.322.612-2.97 1.566-.486-1.008-1.404-1.566-2.7-1.566-1.314 0-2.178.684-2.682 1.476v-1.314h-1.296V20h1.35v-4.95c0-1.8 1.062-2.862 2.286-2.862 1.368 0 2.052.72 2.052 2.412V20h1.35v-5.256c0-1.692 1.152-2.556 2.286-2.556 1.332 0 2.052.72 2.052 2.286V20h1.332v-5.58Zm4.414.09c-.054 2.718-1.062 5.202-2.664 7.308h1.44c1.494-1.998 2.574-4.698 2.574-7.308 0-2.61-1.08-5.31-2.574-7.308h-1.44c1.602 2.106 2.61 4.59 2.664 7.308ZM161.432 20h4.446v-.144l-1.674-.99c-.234-.144-.27-.198-.27-.432V8.948L171.242 20h.702V8.894c0-.216.036-.288.252-.414l1.692-.99v-.144h-4.446v.144l1.692.99c.216.126.252.198.252.414v8.892l-6.894-10.44h-2.952v.144l1.62.9c.162.072.216.126.216.396v9.648c0 .234-.054.306-.27.432l-1.674.99V20Zm16.666.18c1.386 0 2.268-.882 2.718-2.142V20h2.844v-.126l-1.386-.81c-.198-.108-.234-.18-.234-.396v-7.416h-2.898v.126l1.422.81c.18.108.216.18.216.396v5.076c-.522.99-1.296 1.62-2.232 1.62-1.26 0-1.746-.99-1.746-2.61 0-1.278.018-3.996.036-5.418h-2.916v.126l1.422.81c.18.108.216.18.216.396-.018 1.548-.036 2.934-.036 4.194 0 2.394 1.008 3.402 2.574 3.402Zm16.876-.18h4.536v-.126l-1.404-.63c-.198-.09-.234-.162-.234-.36 0-1.386.018-3.114.018-4.446 0-2.322-1.026-3.366-2.7-3.366-1.242 0-2.178.648-2.772 2.106-.324-1.458-1.26-2.106-2.574-2.106-1.332 0-2.214.81-2.718 2.16v-1.98h-2.844v.126l1.44.828c.18.108.198.18.198.396v6.282c0 .198-.036.27-.234.36l-1.404.63V20h4.536v-.126l-1.404-.63c-.198-.09-.216-.162-.216-.36v-5.31c.486-.954 1.224-1.62 2.214-1.62 1.062 0 1.854.666 1.854 2.61l-.018 4.338c0 .18-.036.234-.234.342l-1.386.63V20h4.536v-.126l-1.404-.63c-.198-.09-.234-.162-.234-.36 0-1.386.018-3.132.018-4.446 0-.288-.018-.558-.054-.81.486-.972 1.224-1.674 2.286-1.674s1.854.666 1.854 2.61l-.018 4.32c0 .198-.018.252-.252.36l-1.386.63V20Zm9.56.18c2.034 0 3.744-1.746 3.744-4.59 0-2.7-1.332-4.518-3.384-4.518-1.188 0-2.052.576-2.628 1.62v-5.76l-2.79.414v.126l1.314.594c.18.072.198.162.198.378V20.18h.108l1.116-1.062c.414.558 1.242 1.062 2.322 1.062Zm-2.268-1.638v-5.31c.558-.918 1.332-1.35 2.178-1.35 1.566 0 2.412 1.53 2.412 3.78 0 2.52-1.08 3.906-2.682 3.906-.756 0-1.53-.378-1.908-1.026Zm11.257 1.638c1.656 0 2.97-.972 3.402-2.952l-.126-.036c-.702 1.53-1.674 2.052-2.79 2.052-1.53 0-2.916-1.116-2.916-3.852 0-.144 0-.288.018-.414h5.652c.018-.126.018-.198.018-.324 0-2.232-1.512-3.582-3.348-3.582-1.89 0-3.636 1.494-3.636 4.59 0 3.06 1.71 4.518 3.726 4.518Zm-2.394-5.652c.198-1.854 1.026-3.006 2.286-3.006 1.386 0 2.052 1.296 2.124 3.006h-4.41ZM217.944 20h5.166v-.126l-2.016-.702c-.216-.072-.234-.144-.234-.36v-4.374c.414-1.062 1.008-1.998 1.62-2.358.162-.144.288-.198.396-.198.09 0 .126.018.162.126l.738 1.764h.108l.72-2.52a2.46 2.46 0 0 0-.972-.18c-1.278 0-2.304 1.206-2.826 2.79v-2.61h-2.862v.126l1.44.828c.18.108.198.18.198.378v6.3c0 .198-.036.27-.234.36l-1.404.63V20Zm14.297.18c1.8 0 3.294-.99 3.294-2.628 0-1.17-.738-1.854-1.944-2.304l-1.404-.522c-.936-.342-1.512-.792-1.512-1.602 0-.936.81-1.638 1.98-1.638.252 0 .432.018.684.072.216.054.306.09.378.27l.774 1.98h.108l.594-2.268c-.9-.324-1.8-.468-2.538-.468-1.728 0-3.06 1.008-3.06 2.484 0 1.116.738 1.854 1.908 2.304l1.332.504c.99.378 1.512.792 1.512 1.62 0 1.062-.846 1.764-2.124 1.764-.396 0-.81-.054-1.062-.126-.198-.054-.27-.108-.342-.306l-.702-2.142h-.108l-.648 2.466c.882.324 1.962.54 2.88.54Zm4.336-.18h4.536v-.126l-1.404-.63c-.198-.09-.216-.162-.216-.36v-7.632h-2.916v.126l1.44.828c.18.108.198.18.198.396v6.282c0 .198-.036.27-.234.36l-1.404.63V20Zm1.134-11.322c0 .54.432.972.954.972a.972.972 0 1 0 0-1.944.964.964 0 0 0-.954.972ZM241.944 20h6.372l.234-3.006h-.108l-1.332 2.322c-.108.18-.126.198-.396.198h-3.096l5.094-8.136v-.126h-6.444v2.88h.108l1.206-2.214c.108-.18.144-.18.396-.18h3.078l-5.112 8.136V20Zm11.886.18c1.656 0 2.97-.972 3.402-2.952l-.126-.036c-.702 1.53-1.674 2.052-2.79 2.052-1.53 0-2.916-1.116-2.916-3.852 0-.144 0-.288.018-.414h5.652c.018-.126.018-.198.018-.324 0-2.232-1.512-3.582-3.348-3.582-1.89 0-3.636 1.494-3.636 4.59 0 3.06 1.71 4.518 3.726 4.518Zm-2.394-5.652c.198-1.854 1.026-3.006 2.286-3.006 1.386 0 2.052 1.296 2.124 3.006h-4.41Z" fill="#5C5C5C"/><path stroke="#5C5C5C" stroke-width=".5" d="M2 41.75h873M2 77.75h292M2 185.75h292M2 150.25h292M2 113.75h146M2 221.75h146M2 257.75h292M2 365.75h292M2 329.75h146M2 294.25h292"/><path d="M489.789 54.32h4.9l-3.78 8.68h1.19l3.808-8.75v-.966h-6.118v1.036Zm11.794 8.834c2.016 0 3.472-1.498 3.472-5.012 0-3.514-1.456-5.012-3.472-5.012s-3.472 1.498-3.472 5.012c0 3.514 1.456 5.012 3.472 5.012Zm0-.98c-1.428 0-2.324-1.26-2.324-4.032 0-2.772.896-4.032 2.324-4.032s2.324 1.26 2.324 4.032c0 2.772-.896 4.032-2.324 4.032Zm6.158-2.408h3.696v-1.022h-3.696v1.022Zm5.239-5.446h4.9L514.1 63h1.19l3.808-8.75v-.966h-6.118v1.036ZM526.743 63v-2.268h1.4v-.98h-1.4v-6.468h-1.372l-4.592 6.468v.98h4.9V63h1.064Zm-1.064-3.248h-3.682l3.682-5.18v5.18ZM489.802 90.32h4.9l-3.78 8.68h1.19l3.808-8.75v-.966h-6.118v1.036ZM503.565 99v-2.268h1.4v-.98h-1.4v-6.468h-1.372l-4.592 6.468v.98h4.9V99h1.064Zm-1.064-3.248h-3.682l3.682-5.18v5.18Zm5.049.014h3.696v-1.022h-3.696v1.022Zm5.239-5.446h4.9l-3.78 8.68h1.19l3.808-8.75v-.966h-6.118v1.036Zm11.847 8.834c2.072 0 3.346-1.106 3.346-2.772 0-1.064-.7-2.072-1.764-2.394.924-.434 1.428-1.358 1.428-2.184 0-1.47-1.176-2.674-3.01-2.674-1.834 0-3.01 1.204-3.01 2.674 0 .826.504 1.75 1.428 2.184-1.064.322-1.764 1.33-1.764 2.394 0 1.666 1.274 2.772 3.346 2.772Zm0-.952c-1.4 0-2.212-.812-2.212-1.862s.812-1.862 2.212-1.862c1.4 0 2.212.812 2.212 1.862s-.812 1.862-2.212 1.862Zm0-4.662c-1.162 0-1.904-.756-1.904-1.764 0-.966.742-1.694 1.904-1.694s1.904.728 1.904 1.694c0 1.008-.742 1.764-1.904 1.764ZM488.989 126.32h4.9l-3.78 8.68h1.19l3.808-8.75v-.966h-6.118v1.036Zm11.847 8.834c2.072 0 3.346-1.106 3.346-2.772 0-1.064-.7-2.072-1.764-2.394.924-.434 1.428-1.358 1.428-2.184 0-1.47-1.176-2.674-3.01-2.674-1.834 0-3.01 1.204-3.01 2.674 0 .826.504 1.75 1.428 2.184-1.064.322-1.764 1.33-1.764 2.394 0 1.666 1.274 2.772 3.346 2.772Zm0-.952c-1.4 0-2.212-.812-2.212-1.862s.812-1.862 2.212-1.862c1.4 0 2.212.812 2.212 1.862s-.812 1.862-2.212 1.862Zm0-4.662c-1.162 0-1.904-.756-1.904-1.764 0-.966.742-1.694 1.904-1.694s1.904.728 1.904 1.694c0 1.008-.742 1.764-1.904 1.764Zm6.078 2.226h3.696v-1.022h-3.696v1.022Zm9.766 3.388c2.072 0 3.346-1.106 3.346-2.772 0-1.064-.7-2.072-1.764-2.394.924-.434 1.428-1.358 1.428-2.184 0-1.47-1.176-2.674-3.01-2.674-1.834 0-3.01 1.204-3.01 2.674 0 .826.504 1.75 1.428 2.184-1.064.322-1.764 1.33-1.764 2.394 0 1.666 1.274 2.772 3.346 2.772Zm0-.952c-1.4 0-2.212-.812-2.212-1.862s.812-1.862 2.212-1.862c1.4 0 2.212.812 2.212 1.862s-.812 1.862-2.212 1.862Zm0-4.662c-1.162 0-1.904-.756-1.904-1.764 0-.966.742-1.694 1.904-1.694s1.904.728 1.904 1.694c0 1.008-.742 1.764-1.904 1.764Zm6.11 5.46h6.146v-1.022h-4.76l2.982-3.136c.798-.854 1.624-1.918 1.624-3.08 0-1.4-1.106-2.632-2.996-2.632-1.876 0-3.136 1.134-3.164 3.136h1.148c0-1.442.84-2.156 2.016-2.156 1.092 0 1.876.658 1.876 1.652 0 .924-.56 1.666-1.232 2.366l-3.64 3.836V135ZM492.669 171.154c2.072 0 3.346-1.106 3.346-2.772 0-1.064-.7-2.072-1.764-2.394.924-.434 1.428-1.358 1.428-2.184 0-1.47-1.176-2.674-3.01-2.674-1.834 0-3.01 1.204-3.01 2.674 0 .826.504 1.75 1.428 2.184-1.064.322-1.764 1.33-1.764 2.394 0 1.666 1.274 2.772 3.346 2.772Zm0-.952c-1.4 0-2.212-.812-2.212-1.862s.812-1.862 2.212-1.862c1.4 0 2.212.812 2.212 1.862s-.812 1.862-2.212 1.862Zm0-4.662c-1.162 0-1.904-.756-1.904-1.764 0-.966.742-1.694 1.904-1.694s1.904.728 1.904 1.694c0 1.008-.742 1.764-1.904 1.764Zm6.109 5.46h6.146v-1.022h-4.76l2.982-3.136c.798-.854 1.624-1.918 1.624-3.08 0-1.4-1.106-2.632-2.996-2.632-1.876 0-3.136 1.134-3.164 3.136h1.148c0-1.442.84-2.156 2.016-2.156 1.092 0 1.876.658 1.876 1.652 0 .924-.56 1.666-1.232 2.366l-3.64 3.836V171Zm8.465-3.234h3.696v-1.022h-3.696v1.022Zm9.766 3.388c2.072 0 3.346-1.106 3.346-2.772 0-1.064-.7-2.072-1.764-2.394.924-.434 1.428-1.358 1.428-2.184 0-1.47-1.176-2.674-3.01-2.674-1.834 0-3.01 1.204-3.01 2.674 0 .826.504 1.75 1.428 2.184-1.064.322-1.764 1.33-1.764 2.394 0 1.666 1.274 2.772 3.346 2.772Zm0-.952c-1.4 0-2.212-.812-2.212-1.862s.812-1.862 2.212-1.862c1.4 0 2.212.812 2.212 1.862s-.812 1.862-2.212 1.862Zm0-4.662c-1.162 0-1.904-.756-1.904-1.764 0-.966.742-1.694 1.904-1.694s1.904.728 1.904 1.694c0 1.008-.742 1.764-1.904 1.764Zm9.428 5.614c1.834 0 3.276-1.19 3.276-3.304 0-1.988-1.4-3.178-3.094-3.178-1.12 0-2.128.532-2.59 1.596.042-3.206 1.162-4.172 2.45-4.172 1.092 0 1.722.63 1.806 1.512h1.134c-.042-1.372-1.148-2.478-2.912-2.478-1.82 0-3.528 1.232-3.528 4.928 0 3.71 1.484 5.096 3.458 5.096Zm-.028-.966c-1.26 0-2.058-.924-2.058-2.31 0-1.19.84-2.24 2.156-2.24 1.204 0 2.086.882 2.086 2.24 0 1.386-.826 2.31-2.184 2.31ZM492.3 207.154c2.072 0 3.346-1.106 3.346-2.772 0-1.064-.7-2.072-1.764-2.394.924-.434 1.428-1.358 1.428-2.184 0-1.47-1.176-2.674-3.01-2.674-1.834 0-3.01 1.204-3.01 2.674 0 .826.504 1.75 1.428 2.184-1.064.322-1.764 1.33-1.764 2.394 0 1.666 1.274 2.772 3.346 2.772Zm0-.952c-1.4 0-2.212-.812-2.212-1.862s.812-1.862 2.212-1.862c1.4 0 2.212.812 2.212 1.862s-.812 1.862-2.212 1.862Zm0-4.662c-1.162 0-1.904-.756-1.904-1.764 0-.966.742-1.694 1.904-1.694s1.904.728 1.904 1.694c0 1.008-.742 1.764-1.904 1.764Zm9.427 5.614c1.834 0 3.276-1.19 3.276-3.304 0-1.988-1.4-3.178-3.094-3.178-1.12 0-2.128.532-2.59 1.596.042-3.206 1.162-4.172 2.45-4.172 1.092 0 1.722.63 1.806 1.512h1.134c-.042-1.372-1.148-2.478-2.912-2.478-1.82 0-3.528 1.232-3.528 4.928 0 3.71 1.484 5.096 3.458 5.096Zm-.028-.966c-1.26 0-2.058-.924-2.058-2.31 0-1.19.84-2.24 2.156-2.24 1.204 0 2.086.882 2.086 2.24 0 1.386-.826 2.31-2.184 2.31Zm5.995-2.422h3.696v-1.022h-3.696v1.022Zm9.408-6.636c-1.834 0-3.276 1.19-3.276 3.304 0 1.988 1.4 3.178 3.094 3.178 1.12 0 2.128-.532 2.59-1.596-.042 3.206-1.162 4.172-2.45 4.172-1.092 0-1.722-.63-1.806-1.512h-1.134c.042 1.372 1.148 2.478 2.912 2.478 1.82 0 3.528-1.232 3.528-4.928 0-3.71-1.484-5.096-3.458-5.096Zm.028.966c1.26 0 2.058.924 2.058 2.31 0 1.19-.84 2.24-2.156 2.24-1.204 0-2.086-.882-2.086-2.24 0-1.386.826-2.31 2.184-2.31Zm9.485 9.058c2.016 0 3.472-1.498 3.472-5.012 0-3.514-1.456-5.012-3.472-5.012s-3.472 1.498-3.472 5.012c0 3.514 1.456 5.012 3.472 5.012Zm0-.98c-1.428 0-2.324-1.26-2.324-4.032 0-2.772.896-4.032 2.324-4.032s2.324 1.26 2.324 4.032c0 2.772-.896 4.032-2.324 4.032ZM491.53 233.13c-1.834 0-3.276 1.19-3.276 3.304 0 1.988 1.4 3.178 3.094 3.178 1.12 0 2.128-.532 2.59-1.596-.042 3.206-1.162 4.172-2.45 4.172-1.092 0-1.722-.63-1.806-1.512h-1.134c.042 1.372 1.148 2.478 2.912 2.478 1.82 0 3.528-1.232 3.528-4.928 0-3.71-1.484-5.096-3.458-5.096Zm.028.966c1.26 0 2.058.924 2.058 2.31 0 1.19-.84 2.24-2.156 2.24-1.204 0-2.086-.882-2.086-2.24 0-1.386.826-2.31 2.184-2.31Zm9.485 9.058c2.016 0 3.472-1.498 3.472-5.012 0-3.514-1.456-5.012-3.472-5.012s-3.472 1.498-3.472 5.012c0 3.514 1.456 5.012 3.472 5.012Zm0-.98c-1.428 0-2.324-1.26-2.324-4.032 0-2.772.896-4.032 2.324-4.032s2.324 1.26 2.324 4.032c0 2.772-.896 4.032-2.324 4.032Zm6.158-2.408h3.696v-1.022h-3.696v1.022Zm9.408-6.636c-1.834 0-3.276 1.19-3.276 3.304 0 1.988 1.4 3.178 3.094 3.178 1.12 0 2.128-.532 2.59-1.596-.042 3.206-1.162 4.172-2.45 4.172-1.092 0-1.722-.63-1.806-1.512h-1.134c.042 1.372 1.148 2.478 2.912 2.478 1.82 0 3.528-1.232 3.528-4.928 0-3.71-1.484-5.096-3.458-5.096Zm.028.966c1.26 0 2.058.924 2.058 2.31 0 1.19-.84 2.24-2.156 2.24-1.204 0-2.086-.882-2.086-2.24 0-1.386.826-2.31 2.184-2.31ZM528.446 243v-2.268h1.4v-.98h-1.4v-6.468h-1.372l-4.592 6.468v.98h4.9V243h1.064Zm-1.064-3.248H523.7l3.682-5.18v5.18ZM491.612 269.13c-1.834 0-3.276 1.19-3.276 3.304 0 1.988 1.4 3.178 3.094 3.178 1.12 0 2.128-.532 2.59-1.596-.042 3.206-1.162 4.172-2.45 4.172-1.092 0-1.722-.63-1.806-1.512h-1.134c.042 1.372 1.148 2.478 2.912 2.478 1.82 0 3.528-1.232 3.528-4.928 0-3.71-1.484-5.096-3.458-5.096Zm.028.966c1.26 0 2.058.924 2.058 2.31 0 1.19-.84 2.24-2.156 2.24-1.204 0-2.086-.882-2.086-2.24 0-1.386.826-2.31 2.184-2.31ZM503.449 279v-2.268h1.4v-.98h-1.4v-6.468h-1.372l-4.592 6.468v.98h4.9V279h1.064Zm-1.064-3.248h-3.682l3.682-5.18v5.18Zm5.049.014h3.696v-1.022h-3.696v1.022Zm9.407-6.636c-1.834 0-3.276 1.19-3.276 3.304 0 1.988 1.4 3.178 3.094 3.178 1.12 0 2.128-.532 2.59-1.596-.042 3.206-1.162 4.172-2.45 4.172-1.092 0-1.722-.63-1.806-1.512h-1.134c.042 1.372 1.148 2.478 2.912 2.478 1.82 0 3.528-1.232 3.528-4.928 0-3.71-1.484-5.096-3.458-5.096Zm.028.966c1.26 0 2.058.924 2.058 2.31 0 1.19-.84 2.24-2.156 2.24-1.204 0-2.086-.882-2.086-2.24 0-1.386.826-2.31 2.184-2.31Zm9.401 9.058c2.072 0 3.346-1.106 3.346-2.772 0-1.064-.7-2.072-1.764-2.394.924-.434 1.428-1.358 1.428-2.184 0-1.47-1.176-2.674-3.01-2.674-1.834 0-3.01 1.204-3.01 2.674 0 .826.504 1.75 1.428 2.184-1.064.322-1.764 1.33-1.764 2.394 0 1.666 1.274 2.772 3.346 2.772Zm0-.952c-1.4 0-2.212-.812-2.212-1.862s.812-1.862 2.212-1.862c1.4 0 2.212.812 2.212 1.862s-.812 1.862-2.212 1.862Zm0-4.662c-1.162 0-1.904-.756-1.904-1.764 0-.966.742-1.694 1.904-1.694s1.904.728 1.904 1.694c0 1.008-.742 1.764-1.904 1.764ZM489.361 305.13c-1.834 0-3.276 1.19-3.276 3.304 0 1.988 1.4 3.178 3.094 3.178 1.12 0 2.128-.532 2.59-1.596-.042 3.206-1.162 4.172-2.45 4.172-1.092 0-1.722-.63-1.806-1.512h-1.134c.042 1.372 1.148 2.478 2.912 2.478 1.82 0 3.528-1.232 3.528-4.928 0-3.71-1.484-5.096-3.458-5.096Zm.028.966c1.26 0 2.058.924 2.058 2.31 0 1.19-.84 2.24-2.156 2.24-1.204 0-2.086-.882-2.086-2.24 0-1.386.826-2.31 2.184-2.31Zm9.401 9.058c2.072 0 3.346-1.106 3.346-2.772 0-1.064-.7-2.072-1.764-2.394.924-.434 1.428-1.358 1.428-2.184 0-1.47-1.176-2.674-3.01-2.674-1.834 0-3.01 1.204-3.01 2.674 0 .826.504 1.75 1.428 2.184-1.064.322-1.764 1.33-1.764 2.394 0 1.666 1.274 2.772 3.346 2.772Zm0-.952c-1.4 0-2.212-.812-2.212-1.862s.812-1.862 2.212-1.862c1.4 0 2.212.812 2.212 1.862s-.812 1.862-2.212 1.862Zm0-4.662c-1.162 0-1.904-.756-1.904-1.764 0-.966.742-1.694 1.904-1.694s1.904.728 1.904 1.694c0 1.008-.742 1.764-1.904 1.764Zm6.078 2.226h3.696v-1.022h-3.696v1.022Zm8.873 3.234v-9.716h-1.022l-2.338 1.708v1.218l2.268-1.638V315h1.092Zm6.93.154c2.016 0 3.472-1.498 3.472-5.012 0-3.514-1.456-5.012-3.472-5.012s-3.472 1.498-3.472 5.012c0 3.514 1.456 5.012 3.472 5.012Zm0-.98c-1.428 0-2.324-1.26-2.324-4.032 0-2.772.896-4.032 2.324-4.032s2.324 1.26 2.324 4.032c0 2.772-.896 4.032-2.324 4.032Zm6.19.826h6.146v-1.022h-4.76l2.982-3.136c.798-.854 1.624-1.918 1.624-3.08 0-1.4-1.106-2.632-2.996-2.632-1.876 0-3.136 1.134-3.164 3.136h1.148c0-1.442.84-2.156 2.016-2.156 1.092 0 1.876.658 1.876 1.652 0 .924-.56 1.666-1.232 2.366l-3.64 3.836V315ZM485.507 351v-9.716h-1.022l-2.338 1.708v1.218l2.268-1.638V351h1.092Zm6.93.154c2.016 0 3.472-1.498 3.472-5.012 0-3.514-1.456-5.012-3.472-5.012s-3.472 1.498-3.472 5.012c0 3.514 1.456 5.012 3.472 5.012Zm0-.98c-1.428 0-2.324-1.26-2.324-4.032 0-2.772.896-4.032 2.324-4.032s2.324 1.26 2.324 4.032c0 2.772-.896 4.032-2.324 4.032Zm6.19.826h6.146v-1.022h-4.76l2.982-3.136c.798-.854 1.624-1.918 1.624-3.08 0-1.4-1.106-2.632-2.996-2.632-1.876 0-3.136 1.134-3.164 3.136h1.148c0-1.442.84-2.156 2.016-2.156 1.092 0 1.876.658 1.876 1.652 0 .924-.56 1.666-1.232 2.366l-3.64 3.836V351Zm8.465-3.234h3.696v-1.022h-3.696v1.022Zm8.872 3.234v-9.716h-1.022l-2.338 1.708v1.218l2.268-1.638V351h1.092Zm6.931.154c2.016 0 3.472-1.498 3.472-5.012 0-3.514-1.456-5.012-3.472-5.012s-3.472 1.498-3.472 5.012c0 3.514 1.456 5.012 3.472 5.012Zm0-.98c-1.428 0-2.324-1.26-2.324-4.032 0-2.772.896-4.032 2.324-4.032s2.324 1.26 2.324 4.032c0 2.772-.896 4.032-2.324 4.032Zm9.508.98c1.834 0 3.276-1.19 3.276-3.304 0-1.988-1.4-3.178-3.094-3.178-1.12 0-2.128.532-2.59 1.596.042-3.206 1.162-4.172 2.45-4.172 1.092 0 1.722.63 1.806 1.512h1.134c-.042-1.372-1.148-2.478-2.912-2.478-1.82 0-3.528 1.232-3.528 4.928 0 3.71 1.484 5.096 3.458 5.096Zm-.028-.966c-1.26 0-2.058-.924-2.058-2.31 0-1.19.84-2.24 2.156-2.24 1.204 0 2.086.882 2.086 2.24 0 1.386-.826 2.31-2.184 2.31ZM487.306 387v-9.716h-1.022l-2.338 1.708v1.218l2.268-1.638V387h1.092Zm6.93.154c2.016 0 3.472-1.498 3.472-5.012 0-3.514-1.456-5.012-3.472-5.012s-3.472 1.498-3.472 5.012c0 3.514 1.456 5.012 3.472 5.012Zm0-.98c-1.428 0-2.324-1.26-2.324-4.032 0-2.772.896-4.032 2.324-4.032s2.324 1.26 2.324 4.032c0 2.772-.896 4.032-2.324 4.032Zm9.508.98c1.834 0 3.276-1.19 3.276-3.304 0-1.988-1.4-3.178-3.094-3.178-1.12 0-2.128.532-2.59 1.596.042-3.206 1.162-4.172 2.45-4.172 1.092 0 1.722.63 1.806 1.512h1.134c-.042-1.372-1.148-2.478-2.912-2.478-1.82 0-3.528 1.232-3.528 4.928 0 3.71 1.484 5.096 3.458 5.096Zm-.028-.966c-1.26 0-2.058-.924-2.058-2.31 0-1.19.84-2.24 2.156-2.24 1.204 0 2.086.882 2.086 2.24 0 1.386-.826 2.31-2.184 2.31Zm5.995-2.422h3.696v-1.022h-3.696v1.022Zm8.873 3.234v-9.716h-1.022l-2.338 1.708v1.218l2.268-1.638V387h1.092Zm6.65 0v-9.716h-1.022l-2.338 1.708v1.218l2.268-1.638V387h1.092Zm3.599 0h6.146v-1.022h-4.76l2.982-3.136c.798-.854 1.624-1.918 1.624-3.08 0-1.4-1.106-2.632-2.996-2.632-1.876 0-3.136 1.134-3.164 3.136h1.148c0-1.442.84-2.156 2.016-2.156 1.092 0 1.876.658 1.876 1.652 0 .924-.56 1.666-1.232 2.366l-3.64 3.836V387Z" fill="#5C5C5C"/><path stroke="#5C5C5C" stroke-width=".5" d="M438 77.75h146M438 185.75h146M438 150.25h146M438 114.25h146M438 221.75h146M438 257.75h146M438 365.75h146M438 330.25h146M438 294.25h146M2 398.75h873M148.25 42v357"/><path transform="matrix(.00283 1 -1 .00234 293 42)" stroke="#5C5C5C" stroke-width=".5" d="M0-.25h357.001"/><path transform="matrix(.00283 1 -1 .00234 583 42)" stroke="#5C5C5C" stroke-width=".5" d="M0-.25h357.001"/><path d="M637.314 63.154c2.1 0 3.346-1.372 3.346-3.234 0-1.988-1.47-3.234-2.996-3.234-.896 0-1.708.364-2.128.868l.364-3.248h4.144v-1.022h-5.012l-.616 5.6h1.092c.322-.756 1.008-1.232 1.96-1.232 1.148 0 2.072.924 2.072 2.268 0 1.316-.854 2.268-2.226 2.268-1.344 0-2.072-.798-2.128-1.904h-1.148c.042 1.764 1.302 2.87 3.276 2.87ZM648.826 63v-2.268h1.4v-.98h-1.4v-6.468h-1.372l-4.592 6.468v.98h4.9V63h1.064Zm-1.064-3.248h-3.682l3.682-5.18v5.18Zm5.049.014h3.696v-1.022h-3.696v1.022Zm9.513 3.388c2.1 0 3.346-1.372 3.346-3.234 0-1.988-1.47-3.234-2.996-3.234-.896 0-1.708.364-2.128.868l.364-3.248h4.144v-1.022h-5.012l-.616 5.6h1.092c.322-.756 1.008-1.232 1.96-1.232 1.148 0 2.072.924 2.072 2.268 0 1.316-.854 2.268-2.226 2.268-1.344 0-2.072-.798-2.128-1.904h-1.148c.042 1.764 1.302 2.87 3.276 2.87Zm9.104 0c2.072 0 3.346-1.106 3.346-2.772 0-1.064-.7-2.072-1.764-2.394.924-.434 1.428-1.358 1.428-2.184 0-1.47-1.176-2.674-3.01-2.674-1.834 0-3.01 1.204-3.01 2.674 0 .826.504 1.75 1.428 2.184-1.064.322-1.764 1.33-1.764 2.394 0 1.666 1.274 2.772 3.346 2.772Zm0-.952c-1.4 0-2.212-.812-2.212-1.862s.812-1.862 2.212-1.862c1.4 0 2.212.812 2.212 1.862s-.812 1.862-2.212 1.862Zm0-4.662c-1.162 0-1.904-.756-1.904-1.764 0-.966.742-1.694 1.904-1.694s1.904.728 1.904 1.694c0 1.008-.742 1.764-1.904 1.764ZM637.033 99.154c2.1 0 3.346-1.372 3.346-3.234 0-1.988-1.47-3.234-2.996-3.234-.896 0-1.708.364-2.128.868l.364-3.248h4.144v-1.022h-5.012l-.616 5.6h1.092c.322-.756 1.008-1.232 1.96-1.232 1.148 0 2.072.924 2.072 2.268 0 1.316-.854 2.268-2.226 2.268-1.344 0-2.072-.798-2.128-1.904h-1.148c.042 1.764 1.302 2.87 3.276 2.87Zm9.104 0c2.072 0 3.346-1.106 3.346-2.772 0-1.064-.7-2.072-1.764-2.394.924-.434 1.428-1.358 1.428-2.184 0-1.47-1.176-2.674-3.01-2.674-1.834 0-3.01 1.204-3.01 2.674 0 .826.504 1.75 1.428 2.184-1.064.322-1.764 1.33-1.764 2.394 0 1.666 1.274 2.772 3.346 2.772Zm0-.952c-1.4 0-2.212-.812-2.212-1.862s.812-1.862 2.212-1.862c1.4 0 2.212.812 2.212 1.862s-.812 1.862-2.212 1.862Zm0-4.662c-1.162 0-1.904-.756-1.904-1.764 0-.966.742-1.694 1.904-1.694s1.904.728 1.904 1.694c0 1.008-.742 1.764-1.904 1.764Zm6.078 2.226h3.696v-1.022h-3.696v1.022Zm9.836 3.388c1.834 0 3.276-1.19 3.276-3.304 0-1.988-1.4-3.178-3.094-3.178-1.12 0-2.128.532-2.59 1.596.042-3.206 1.162-4.172 2.45-4.172 1.092 0 1.722.63 1.806 1.512h1.134c-.042-1.372-1.148-2.478-2.912-2.478-1.82 0-3.528 1.232-3.528 4.928 0 3.71 1.484 5.096 3.458 5.096Zm-.028-.966c-1.26 0-2.058-.924-2.058-2.31 0-1.19.84-2.24 2.156-2.24 1.204 0 2.086.882 2.086 2.24 0 1.386-.826 2.31-2.184 2.31Zm6.026.812h6.146v-1.022h-4.76l2.982-3.136c.798-.854 1.624-1.918 1.624-3.08 0-1.4-1.106-2.632-2.996-2.632-1.876 0-3.136 1.134-3.164 3.136h1.148c0-1.442.84-2.156 2.016-2.156 1.092 0 1.876.658 1.876 1.652 0 .924-.56 1.666-1.232 2.366l-3.64 3.836V99ZM637.78 135.154c1.834 0 3.276-1.19 3.276-3.304 0-1.988-1.4-3.178-3.094-3.178-1.12 0-2.128.532-2.59 1.596.042-3.206 1.162-4.172 2.45-4.172 1.092 0 1.722.63 1.806 1.512h1.134c-.042-1.372-1.148-2.478-2.912-2.478-1.82 0-3.528 1.232-3.528 4.928 0 3.71 1.484 5.096 3.458 5.096Zm-.028-.966c-1.26 0-2.058-.924-2.058-2.31 0-1.19.84-2.24 2.156-2.24 1.204 0 2.086.882 2.086 2.24 0 1.386-.826 2.31-2.184 2.31Zm6.026.812h6.146v-1.022h-4.76l2.982-3.136c.798-.854 1.624-1.918 1.624-3.08 0-1.4-1.106-2.632-2.996-2.632-1.876 0-3.136 1.134-3.164 3.136h1.148c0-1.442.84-2.156 2.016-2.156 1.092 0 1.876.658 1.876 1.652 0 .924-.56 1.666-1.232 2.366l-3.64 3.836V135Zm8.465-3.234h3.696v-1.022h-3.696v1.022Zm9.836 3.388c1.834 0 3.276-1.19 3.276-3.304 0-1.988-1.4-3.178-3.094-3.178-1.12 0-2.128.532-2.59 1.596.042-3.206 1.162-4.172 2.45-4.172 1.092 0 1.722.63 1.806 1.512h1.134c-.042-1.372-1.148-2.478-2.912-2.478-1.82 0-3.528 1.232-3.528 4.928 0 3.71 1.484 5.096 3.458 5.096Zm-.028-.966c-1.26 0-2.058-.924-2.058-2.31 0-1.19.84-2.24 2.156-2.24 1.204 0 2.086.882 2.086 2.24 0 1.386-.826 2.31-2.184 2.31Zm9.345.966c1.834 0 3.276-1.19 3.276-3.304 0-1.988-1.4-3.178-3.094-3.178-1.12 0-2.128.532-2.59 1.596.042-3.206 1.162-4.172 2.45-4.172 1.092 0 1.722.63 1.806 1.512h1.134c-.042-1.372-1.148-2.478-2.912-2.478-1.82 0-3.528 1.232-3.528 4.928 0 3.71 1.484 5.096 3.458 5.096Zm-.028-.966c-1.26 0-2.058-.924-2.058-2.31 0-1.19.84-2.24 2.156-2.24 1.204 0 2.086.882 2.086 2.24 0 1.386-.826 2.31-2.184 2.31ZM638.333 171.154c1.835 0 3.277-1.19 3.277-3.304 0-1.988-1.401-3.178-3.094-3.178-1.121 0-2.129.532-2.591 1.596.042-3.206 1.162-4.172 2.45-4.172 1.092 0 1.723.63 1.806 1.512h1.134c-.041-1.372-1.147-2.478-2.912-2.478-1.82 0-3.528 1.232-3.528 4.928 0 3.71 1.484 5.096 3.458 5.096Zm-.028-.966c-1.26 0-2.058-.924-2.058-2.31 0-1.19.84-2.24 2.156-2.24 1.204 0 2.087.882 2.087 2.24 0 1.386-.827 2.31-2.185 2.31Zm9.345.966c1.834 0 3.276-1.19 3.276-3.304 0-1.988-1.4-3.178-3.094-3.178-1.12 0-2.128.532-2.59 1.596.042-3.206 1.162-4.172 2.45-4.172 1.092 0 1.722.63 1.806 1.512h1.134c-.042-1.372-1.148-2.478-2.912-2.478-1.82 0-3.528 1.232-3.528 4.928 0 3.71 1.484 5.096 3.458 5.096Zm-.028-.966c-1.26 0-2.058-.924-2.058-2.31 0-1.19.84-2.24 2.156-2.24 1.204 0 2.086.882 2.086 2.24 0 1.386-.826 2.31-2.184 2.31Zm5.995-2.422h3.696v-1.022h-3.696v1.022Zm5.239-5.446h4.9l-3.78 8.68h1.19l3.808-8.75v-.966h-6.118v1.036Zm11.795 8.834c2.016 0 3.472-1.498 3.472-5.012 0-3.514-1.456-5.012-3.472-5.012s-3.472 1.498-3.472 5.012c0 3.514 1.456 5.012 3.472 5.012Zm0-.98c-1.428 0-2.324-1.26-2.324-4.032 0-2.772.896-4.032 2.324-4.032s2.324 1.26 2.324 4.032c0 2.772-.896 4.032-2.324 4.032ZM634.789 198.32h4.9l-3.78 8.68h1.19l3.808-8.75v-.966h-6.118v1.036Zm11.794 8.834c2.016 0 3.472-1.498 3.472-5.012 0-3.514-1.456-5.012-3.472-5.012s-3.472 1.498-3.472 5.012c0 3.514 1.456 5.012 3.472 5.012Zm0-.98c-1.428 0-2.324-1.26-2.324-4.032 0-2.772.896-4.032 2.324-4.032s2.324 1.26 2.324 4.032c0 2.772-.896 4.032-2.324 4.032Zm6.158-2.408h3.696v-1.022h-3.696v1.022Zm5.239-5.446h4.9L659.1 207h1.19l3.808-8.75v-.966h-6.118v1.036Zm13.763 8.68v-2.268h1.4v-.98h-1.4v-6.468h-1.372l-4.592 6.468v.98h4.9V207h1.064Zm-1.064-3.248h-3.682l3.682-5.18v5.18ZM634.802 234.32h4.9l-3.78 8.68h1.19l3.808-8.75v-.966h-6.118v1.036Zm13.763 8.68v-2.268h1.4v-.98h-1.4v-6.468h-1.372l-4.592 6.468v.98h4.9V243h1.064Zm-1.064-3.248h-3.682l3.682-5.18v5.18Zm5.049.014h3.696v-1.022h-3.696v1.022Zm5.239-5.446h4.9l-3.78 8.68h1.19l3.808-8.75v-.966h-6.118v1.036Zm11.847 8.834c2.072 0 3.346-1.106 3.346-2.772 0-1.064-.7-2.072-1.764-2.394.924-.434 1.428-1.358 1.428-2.184 0-1.47-1.176-2.674-3.01-2.674-1.834 0-3.01 1.204-3.01 2.674 0 .826.504 1.75 1.428 2.184-1.064.322-1.764 1.33-1.764 2.394 0 1.666 1.274 2.772 3.346 2.772Zm0-.952c-1.4 0-2.212-.812-2.212-1.862s.812-1.862 2.212-1.862c1.4 0 2.212.812 2.212 1.862s-.812 1.862-2.212 1.862Zm0-4.662c-1.162 0-1.904-.756-1.904-1.764 0-.966.742-1.694 1.904-1.694s1.904.728 1.904 1.694c0 1.008-.742 1.764-1.904 1.764ZM633.989 270.32h4.9l-3.78 8.68h1.19l3.808-8.75v-.966h-6.118v1.036Zm11.847 8.834c2.072 0 3.346-1.106 3.346-2.772 0-1.064-.7-2.072-1.764-2.394.924-.434 1.428-1.358 1.428-2.184 0-1.47-1.176-2.674-3.01-2.674-1.834 0-3.01 1.204-3.01 2.674 0 .826.504 1.75 1.428 2.184-1.064.322-1.764 1.33-1.764 2.394 0 1.666 1.274 2.772 3.346 2.772Zm0-.952c-1.4 0-2.212-.812-2.212-1.862s.812-1.862 2.212-1.862c1.4 0 2.212.812 2.212 1.862s-.812 1.862-2.212 1.862Zm0-4.662c-1.162 0-1.904-.756-1.904-1.764 0-.966.742-1.694 1.904-1.694s1.904.728 1.904 1.694c0 1.008-.742 1.764-1.904 1.764Zm6.078 2.226h3.696v-1.022h-3.696v1.022Zm9.766 3.388c2.072 0 3.346-1.106 3.346-2.772 0-1.064-.7-2.072-1.764-2.394.924-.434 1.428-1.358 1.428-2.184 0-1.47-1.176-2.674-3.01-2.674-1.834 0-3.01 1.204-3.01 2.674 0 .826.504 1.75 1.428 2.184-1.064.322-1.764 1.33-1.764 2.394 0 1.666 1.274 2.772 3.346 2.772Zm0-.952c-1.4 0-2.212-.812-2.212-1.862s.812-1.862 2.212-1.862c1.4 0 2.212.812 2.212 1.862s-.812 1.862-2.212 1.862Zm0-4.662c-1.162 0-1.904-.756-1.904-1.764 0-.966.742-1.694 1.904-1.694s1.904.728 1.904 1.694c0 1.008-.742 1.764-1.904 1.764Zm6.11 5.46h6.146v-1.022h-4.76l2.982-3.136c.798-.854 1.624-1.918 1.624-3.08 0-1.4-1.106-2.632-2.996-2.632-1.876 0-3.136 1.134-3.164 3.136h1.148c0-1.442.84-2.156 2.016-2.156 1.092 0 1.876.658 1.876 1.652 0 .924-.56 1.666-1.232 2.366l-3.64 3.836V279ZM637.669 315.154c2.072 0 3.346-1.106 3.346-2.772 0-1.064-.7-2.072-1.764-2.394.924-.434 1.428-1.358 1.428-2.184 0-1.47-1.176-2.674-3.01-2.674-1.834 0-3.01 1.204-3.01 2.674 0 .826.504 1.75 1.428 2.184-1.064.322-1.764 1.33-1.764 2.394 0 1.666 1.274 2.772 3.346 2.772Zm0-.952c-1.4 0-2.212-.812-2.212-1.862s.812-1.862 2.212-1.862c1.4 0 2.212.812 2.212 1.862s-.812 1.862-2.212 1.862Zm0-4.662c-1.162 0-1.904-.756-1.904-1.764 0-.966.742-1.694 1.904-1.694s1.904.728 1.904 1.694c0 1.008-.742 1.764-1.904 1.764Zm6.109 5.46h6.146v-1.022h-4.76l2.982-3.136c.798-.854 1.624-1.918 1.624-3.08 0-1.4-1.106-2.632-2.996-2.632-1.876 0-3.136 1.134-3.164 3.136h1.148c0-1.442.84-2.156 2.016-2.156 1.092 0 1.876.658 1.876 1.652 0 .924-.56 1.666-1.232 2.366l-3.64 3.836V315Zm8.465-3.234h3.696v-1.022h-3.696v1.022Zm9.766 3.388c2.072 0 3.346-1.106 3.346-2.772 0-1.064-.7-2.072-1.764-2.394.924-.434 1.428-1.358 1.428-2.184 0-1.47-1.176-2.674-3.01-2.674-1.834 0-3.01 1.204-3.01 2.674 0 .826.504 1.75 1.428 2.184-1.064.322-1.764 1.33-1.764 2.394 0 1.666 1.274 2.772 3.346 2.772Zm0-.952c-1.4 0-2.212-.812-2.212-1.862s.812-1.862 2.212-1.862c1.4 0 2.212.812 2.212 1.862s-.812 1.862-2.212 1.862Zm0-4.662c-1.162 0-1.904-.756-1.904-1.764 0-.966.742-1.694 1.904-1.694s1.904.728 1.904 1.694c0 1.008-.742 1.764-1.904 1.764Zm9.428 5.614c1.834 0 3.276-1.19 3.276-3.304 0-1.988-1.4-3.178-3.094-3.178-1.12 0-2.128.532-2.59 1.596.042-3.206 1.162-4.172 2.45-4.172 1.092 0 1.722.63 1.806 1.512h1.134c-.042-1.372-1.148-2.478-2.912-2.478-1.82 0-3.528 1.232-3.528 4.928 0 3.71 1.484 5.096 3.458 5.096Zm-.028-.966c-1.26 0-2.058-.924-2.058-2.31 0-1.19.84-2.24 2.156-2.24 1.204 0 2.086.882 2.086 2.24 0 1.386-.826 2.31-2.184 2.31ZM637.3 351.154c2.072 0 3.346-1.106 3.346-2.772 0-1.064-.7-2.072-1.764-2.394.924-.434 1.428-1.358 1.428-2.184 0-1.47-1.176-2.674-3.01-2.674-1.834 0-3.01 1.204-3.01 2.674 0 .826.504 1.75 1.428 2.184-1.064.322-1.764 1.33-1.764 2.394 0 1.666 1.274 2.772 3.346 2.772Zm0-.952c-1.4 0-2.212-.812-2.212-1.862s.812-1.862 2.212-1.862c1.4 0 2.212.812 2.212 1.862s-.812 1.862-2.212 1.862Zm0-4.662c-1.162 0-1.904-.756-1.904-1.764 0-.966.742-1.694 1.904-1.694s1.904.728 1.904 1.694c0 1.008-.742 1.764-1.904 1.764Zm9.427 5.614c1.834 0 3.276-1.19 3.276-3.304 0-1.988-1.4-3.178-3.094-3.178-1.12 0-2.128.532-2.59 1.596.042-3.206 1.162-4.172 2.45-4.172 1.092 0 1.722.63 1.806 1.512h1.134c-.042-1.372-1.148-2.478-2.912-2.478-1.82 0-3.528 1.232-3.528 4.928 0 3.71 1.484 5.096 3.458 5.096Zm-.028-.966c-1.26 0-2.058-.924-2.058-2.31 0-1.19.84-2.24 2.156-2.24 1.204 0 2.086.882 2.086 2.24 0 1.386-.826 2.31-2.184 2.31Zm5.995-2.422h3.696v-1.022h-3.696v1.022Zm9.408-6.636c-1.834 0-3.276 1.19-3.276 3.304 0 1.988 1.4 3.178 3.094 3.178 1.12 0 2.128-.532 2.59-1.596-.042 3.206-1.162 4.172-2.45 4.172-1.092 0-1.722-.63-1.806-1.512h-1.134c.042 1.372 1.148 2.478 2.912 2.478 1.82 0 3.528-1.232 3.528-4.928 0-3.71-1.484-5.096-3.458-5.096Zm.028.966c1.26 0 2.058.924 2.058 2.31 0 1.19-.84 2.24-2.156 2.24-1.204 0-2.086-.882-2.086-2.24 0-1.386.826-2.31 2.184-2.31Zm9.485 9.058c2.016 0 3.472-1.498 3.472-5.012 0-3.514-1.456-5.012-3.472-5.012s-3.472 1.498-3.472 5.012c0 3.514 1.456 5.012 3.472 5.012Zm0-.98c-1.428 0-2.324-1.26-2.324-4.032 0-2.772.896-4.032 2.324-4.032s2.324 1.26 2.324 4.032c0 2.772-.896 4.032-2.324 4.032ZM637.208 377.13c-1.834 0-3.276 1.19-3.276 3.304 0 1.988 1.4 3.178 3.094 3.178 1.12 0 2.128-.532 2.59-1.596-.042 3.206-1.162 4.172-2.45 4.172-1.092 0-1.722-.63-1.806-1.512h-1.134c.042 1.372 1.148 2.478 2.912 2.478 1.82 0 3.528-1.232 3.528-4.928 0-3.71-1.484-5.096-3.458-5.096Zm.028.966c1.26 0 2.058.924 2.058 2.31 0 1.19-.84 2.24-2.156 2.24-1.204 0-2.086-.882-2.086-2.24 0-1.386.826-2.31 2.184-2.31Zm9.485 9.058c2.016 0 3.472-1.498 3.472-5.012 0-3.514-1.456-5.012-3.472-5.012s-3.472 1.498-3.472 5.012c0 3.514 1.456 5.012 3.472 5.012Zm0-.98c-1.428 0-2.324-1.26-2.324-4.032 0-2.772.896-4.032 2.324-4.032s2.324 1.26 2.324 4.032c0 2.772-.896 4.032-2.324 4.032Zm6.158-2.408h3.696v-1.022h-3.696v1.022Zm9.408-6.636c-1.834 0-3.276 1.19-3.276 3.304 0 1.988 1.4 3.178 3.094 3.178 1.12 0 2.128-.532 2.59-1.596-.042 3.206-1.162 4.172-2.45 4.172-1.092 0-1.722-.63-1.806-1.512h-1.134c.042 1.372 1.148 2.478 2.912 2.478 1.82 0 3.528-1.232 3.528-4.928 0-3.71-1.484-5.096-3.458-5.096Zm.028.966c1.26 0 2.058.924 2.058 2.31 0 1.19-.84 2.24-2.156 2.24-1.204 0-2.086-.882-2.086-2.24 0-1.386.826-2.31 2.184-2.31Zm9.47 9.058c1.834 0 3.276-1.19 3.276-3.304 0-1.988-1.4-3.178-3.094-3.178-1.12 0-2.128.532-2.59 1.596.042-3.206 1.162-4.172 2.45-4.172 1.092 0 1.722.63 1.806 1.512h1.134c-.042-1.372-1.148-2.478-2.912-2.478-1.82 0-3.528 1.232-3.528 4.928 0 3.71 1.484 5.096 3.458 5.096Zm-.028-.966c-1.26 0-2.058-.924-2.058-2.31 0-1.19.84-2.24 2.156-2.24 1.204 0 2.086.882 2.086 2.24 0 1.386-.826 2.31-2.184 2.31Z" fill="#5C5C5C"/><path stroke="#5C5C5C" stroke-width=".5" d="M584 77.75h146M584 185.75h146M584 150.25h146M584 114.25h146M584 221.75h146M584 257.75h146M584 365.75h146M584 330.25h146M584 294.25h146"/><path transform="matrix(.00283 1 -1 .00234 729 42)" stroke="#5C5C5C" stroke-width=".5" d="M0-.25h357.001"/><path d="M780.989 54.32h4.9l-3.78 8.68h1.19l3.808-8.75v-.966h-6.118v1.036Zm11.847 8.834c2.072 0 3.346-1.106 3.346-2.772 0-1.064-.7-2.072-1.764-2.394.924-.434 1.428-1.358 1.428-2.184 0-1.47-1.176-2.674-3.01-2.674-1.834 0-3.01 1.204-3.01 2.674 0 .826.504 1.75 1.428 2.184-1.064.322-1.764 1.33-1.764 2.394 0 1.666 1.274 2.772 3.346 2.772Zm0-.952c-1.4 0-2.212-.812-2.212-1.862s.812-1.862 2.212-1.862c1.4 0 2.212.812 2.212 1.862s-.812 1.862-2.212 1.862Zm0-4.662c-1.162 0-1.904-.756-1.904-1.764 0-.966.742-1.694 1.904-1.694s1.904.728 1.904 1.694c0 1.008-.742 1.764-1.904 1.764Zm6.078 2.226h3.696v-1.022h-3.696v1.022Zm9.766 3.388c2.072 0 3.346-1.106 3.346-2.772 0-1.064-.7-2.072-1.764-2.394.924-.434 1.428-1.358 1.428-2.184 0-1.47-1.176-2.674-3.01-2.674-1.834 0-3.01 1.204-3.01 2.674 0 .826.504 1.75 1.428 2.184-1.064.322-1.764 1.33-1.764 2.394 0 1.666 1.274 2.772 3.346 2.772Zm0-.952c-1.4 0-2.212-.812-2.212-1.862s.812-1.862 2.212-1.862c1.4 0 2.212.812 2.212 1.862s-.812 1.862-2.212 1.862Zm0-4.662c-1.162 0-1.904-.756-1.904-1.764 0-.966.742-1.694 1.904-1.694s1.904.728 1.904 1.694c0 1.008-.742 1.764-1.904 1.764Zm6.11 5.46h6.146v-1.022h-4.76l2.982-3.136c.798-.854 1.624-1.918 1.624-3.08 0-1.4-1.106-2.632-2.996-2.632-1.876 0-3.136 1.134-3.164 3.136h1.148c0-1.442.84-2.156 2.016-2.156 1.092 0 1.876.658 1.876 1.652 0 .924-.56 1.666-1.232 2.366l-3.64 3.836V63ZM783.669 99.154c2.072 0 3.346-1.106 3.346-2.772 0-1.064-.7-2.072-1.764-2.394.924-.434 1.428-1.358 1.428-2.184 0-1.47-1.176-2.674-3.01-2.674-1.834 0-3.01 1.204-3.01 2.674 0 .826.504 1.75 1.428 2.184-1.064.322-1.764 1.33-1.764 2.394 0 1.666 1.274 2.772 3.346 2.772Zm0-.952c-1.4 0-2.212-.812-2.212-1.862s.812-1.862 2.212-1.862c1.4 0 2.212.812 2.212 1.862s-.812 1.862-2.212 1.862Zm0-4.662c-1.162 0-1.904-.756-1.904-1.764 0-.966.742-1.694 1.904-1.694s1.904.728 1.904 1.694c0 1.008-.742 1.764-1.904 1.764Zm6.109 5.46h6.146v-1.022h-4.76l2.982-3.136c.798-.854 1.624-1.918 1.624-3.08 0-1.4-1.106-2.632-2.996-2.632-1.876 0-3.136 1.134-3.164 3.136h1.148c0-1.442.84-2.156 2.016-2.156 1.092 0 1.876.658 1.876 1.652 0 .924-.56 1.666-1.232 2.366l-3.64 3.836V99Zm8.465-3.234h3.696v-1.022h-3.696v1.022Zm9.766 3.388c2.072 0 3.346-1.106 3.346-2.772 0-1.064-.7-2.072-1.764-2.394.924-.434 1.428-1.358 1.428-2.184 0-1.47-1.176-2.674-3.01-2.674-1.834 0-3.01 1.204-3.01 2.674 0 .826.504 1.75 1.428 2.184-1.064.322-1.764 1.33-1.764 2.394 0 1.666 1.274 2.772 3.346 2.772Zm0-.952c-1.4 0-2.212-.812-2.212-1.862s.812-1.862 2.212-1.862c1.4 0 2.212.812 2.212 1.862s-.812 1.862-2.212 1.862Zm0-4.662c-1.162 0-1.904-.756-1.904-1.764 0-.966.742-1.694 1.904-1.694s1.904.728 1.904 1.694c0 1.008-.742 1.764-1.904 1.764Zm9.428 5.614c1.834 0 3.276-1.19 3.276-3.304 0-1.988-1.4-3.178-3.094-3.178-1.12 0-2.128.532-2.59 1.596.042-3.206 1.162-4.172 2.45-4.172 1.092 0 1.722.63 1.806 1.512h1.134c-.042-1.372-1.148-2.478-2.912-2.478-1.82 0-3.528 1.232-3.528 4.928 0 3.71 1.484 5.096 3.458 5.096Zm-.028-.966c-1.26 0-2.058-.924-2.058-2.31 0-1.19.84-2.24 2.156-2.24 1.204 0 2.086.882 2.086 2.24 0 1.386-.826 2.31-2.184 2.31ZM783.3 135.154c2.072 0 3.346-1.106 3.346-2.772 0-1.064-.7-2.072-1.764-2.394.924-.434 1.428-1.358 1.428-2.184 0-1.47-1.176-2.674-3.01-2.674-1.834 0-3.01 1.204-3.01 2.674 0 .826.504 1.75 1.428 2.184-1.064.322-1.764 1.33-1.764 2.394 0 1.666 1.274 2.772 3.346 2.772Zm0-.952c-1.4 0-2.212-.812-2.212-1.862s.812-1.862 2.212-1.862c1.4 0 2.212.812 2.212 1.862s-.812 1.862-2.212 1.862Zm0-4.662c-1.162 0-1.904-.756-1.904-1.764 0-.966.742-1.694 1.904-1.694s1.904.728 1.904 1.694c0 1.008-.742 1.764-1.904 1.764Zm9.427 5.614c1.834 0 3.276-1.19 3.276-3.304 0-1.988-1.4-3.178-3.094-3.178-1.12 0-2.128.532-2.59 1.596.042-3.206 1.162-4.172 2.45-4.172 1.092 0 1.722.63 1.806 1.512h1.134c-.042-1.372-1.148-2.478-2.912-2.478-1.82 0-3.528 1.232-3.528 4.928 0 3.71 1.484 5.096 3.458 5.096Zm-.028-.966c-1.26 0-2.058-.924-2.058-2.31 0-1.19.84-2.24 2.156-2.24 1.204 0 2.086.882 2.086 2.24 0 1.386-.826 2.31-2.184 2.31Zm5.995-2.422h3.696v-1.022h-3.696v1.022Zm9.408-6.636c-1.834 0-3.276 1.19-3.276 3.304 0 1.988 1.4 3.178 3.094 3.178 1.12 0 2.128-.532 2.59-1.596-.042 3.206-1.162 4.172-2.45 4.172-1.092 0-1.722-.63-1.806-1.512h-1.134c.042 1.372 1.148 2.478 2.912 2.478 1.82 0 3.528-1.232 3.528-4.928 0-3.71-1.484-5.096-3.458-5.096Zm.028.966c1.26 0 2.058.924 2.058 2.31 0 1.19-.84 2.24-2.156 2.24-1.204 0-2.086-.882-2.086-2.24 0-1.386.826-2.31 2.184-2.31Zm9.485 9.058c2.016 0 3.472-1.498 3.472-5.012 0-3.514-1.456-5.012-3.472-5.012s-3.472 1.498-3.472 5.012c0 3.514 1.456 5.012 3.472 5.012Zm0-.98c-1.428 0-2.324-1.26-2.324-4.032 0-2.772.896-4.032 2.324-4.032s2.324 1.26 2.324 4.032c0 2.772-.896 4.032-2.324 4.032ZM783.53 161.13c-1.834 0-3.276 1.19-3.276 3.304 0 1.988 1.4 3.178 3.094 3.178 1.12 0 2.128-.532 2.59-1.596-.042 3.206-1.162 4.172-2.45 4.172-1.092 0-1.722-.63-1.806-1.512h-1.134c.042 1.372 1.148 2.478 2.912 2.478 1.82 0 3.528-1.232 3.528-4.928 0-3.71-1.484-5.096-3.458-5.096Zm.028.966c1.26 0 2.058.924 2.058 2.31 0 1.19-.84 2.24-2.156 2.24-1.204 0-2.086-.882-2.086-2.24 0-1.386.826-2.31 2.184-2.31Zm9.485 9.058c2.016 0 3.472-1.498 3.472-5.012 0-3.514-1.456-5.012-3.472-5.012s-3.472 1.498-3.472 5.012c0 3.514 1.456 5.012 3.472 5.012Zm0-.98c-1.428 0-2.324-1.26-2.324-4.032 0-2.772.896-4.032 2.324-4.032s2.324 1.26 2.324 4.032c0 2.772-.896 4.032-2.324 4.032Zm6.158-2.408h3.696v-1.022h-3.696v1.022Zm9.408-6.636c-1.834 0-3.276 1.19-3.276 3.304 0 1.988 1.4 3.178 3.094 3.178 1.12 0 2.128-.532 2.59-1.596-.042 3.206-1.162 4.172-2.45 4.172-1.092 0-1.722-.63-1.806-1.512h-1.134c.042 1.372 1.148 2.478 2.912 2.478 1.82 0 3.528-1.232 3.528-4.928 0-3.71-1.484-5.096-3.458-5.096Zm.028.966c1.26 0 2.058.924 2.058 2.31 0 1.19-.84 2.24-2.156 2.24-1.204 0-2.086-.882-2.086-2.24 0-1.386.826-2.31 2.184-2.31ZM820.446 171v-2.268h1.4v-.98h-1.4v-6.468h-1.372l-4.592 6.468v.98h4.9V171h1.064Zm-1.064-3.248H815.7l3.682-5.18v5.18ZM783.612 197.13c-1.834 0-3.276 1.19-3.276 3.304 0 1.988 1.4 3.178 3.094 3.178 1.12 0 2.128-.532 2.59-1.596-.042 3.206-1.162 4.172-2.45 4.172-1.092 0-1.722-.63-1.806-1.512h-1.134c.042 1.372 1.148 2.478 2.912 2.478 1.82 0 3.528-1.232 3.528-4.928 0-3.71-1.484-5.096-3.458-5.096Zm.028.966c1.26 0 2.058.924 2.058 2.31 0 1.19-.84 2.24-2.156 2.24-1.204 0-2.086-.882-2.086-2.24 0-1.386.826-2.31 2.184-2.31ZM795.449 207v-2.268h1.4v-.98h-1.4v-6.468h-1.372l-4.592 6.468v.98h4.9V207h1.064Zm-1.064-3.248h-3.682l3.682-5.18v5.18Zm5.049.014h3.696v-1.022h-3.696v1.022Zm9.407-6.636c-1.834 0-3.276 1.19-3.276 3.304 0 1.988 1.4 3.178 3.094 3.178 1.12 0 2.128-.532 2.59-1.596-.042 3.206-1.162 4.172-2.45 4.172-1.092 0-1.722-.63-1.806-1.512h-1.134c.042 1.372 1.148 2.478 2.912 2.478 1.82 0 3.528-1.232 3.528-4.928 0-3.71-1.484-5.096-3.458-5.096Zm.028.966c1.26 0 2.058.924 2.058 2.31 0 1.19-.84 2.24-2.156 2.24-1.204 0-2.086-.882-2.086-2.24 0-1.386.826-2.31 2.184-2.31Zm9.401 9.058c2.072 0 3.346-1.106 3.346-2.772 0-1.064-.7-2.072-1.764-2.394.924-.434 1.428-1.358 1.428-2.184 0-1.47-1.176-2.674-3.01-2.674-1.834 0-3.01 1.204-3.01 2.674 0 .826.504 1.75 1.428 2.184-1.064.322-1.764 1.33-1.764 2.394 0 1.666 1.274 2.772 3.346 2.772Zm0-.952c-1.4 0-2.212-.812-2.212-1.862s.812-1.862 2.212-1.862c1.4 0 2.212.812 2.212 1.862s-.812 1.862-2.212 1.862Zm0-4.662c-1.162 0-1.904-.756-1.904-1.764 0-.966.742-1.694 1.904-1.694s1.904.728 1.904 1.694c0 1.008-.742 1.764-1.904 1.764ZM780.361 233.13c-1.834 0-3.276 1.19-3.276 3.304 0 1.988 1.4 3.178 3.094 3.178 1.12 0 2.128-.532 2.59-1.596-.042 3.206-1.162 4.172-2.45 4.172-1.092 0-1.722-.63-1.806-1.512h-1.134c.042 1.372 1.148 2.478 2.912 2.478 1.82 0 3.528-1.232 3.528-4.928 0-3.71-1.484-5.096-3.458-5.096Zm.028.966c1.26 0 2.058.924 2.058 2.31 0 1.19-.84 2.24-2.156 2.24-1.204 0-2.086-.882-2.086-2.24 0-1.386.826-2.31 2.184-2.31Zm9.401 9.058c2.072 0 3.346-1.106 3.346-2.772 0-1.064-.7-2.072-1.764-2.394.924-.434 1.428-1.358 1.428-2.184 0-1.47-1.176-2.674-3.01-2.674-1.834 0-3.01 1.204-3.01 2.674 0 .826.504 1.75 1.428 2.184-1.064.322-1.764 1.33-1.764 2.394 0 1.666 1.274 2.772 3.346 2.772Zm0-.952c-1.4 0-2.212-.812-2.212-1.862s.812-1.862 2.212-1.862c1.4 0 2.212.812 2.212 1.862s-.812 1.862-2.212 1.862Zm0-4.662c-1.162 0-1.904-.756-1.904-1.764 0-.966.742-1.694 1.904-1.694s1.904.728 1.904 1.694c0 1.008-.742 1.764-1.904 1.764Zm6.078 2.226h3.696v-1.022h-3.696v1.022Zm8.873 3.234v-9.716h-1.022l-2.338 1.708v1.218l2.268-1.638V243h1.092Zm6.93.154c2.016 0 3.472-1.498 3.472-5.012 0-3.514-1.456-5.012-3.472-5.012s-3.472 1.498-3.472 5.012c0 3.514 1.456 5.012 3.472 5.012Zm0-.98c-1.428 0-2.324-1.26-2.324-4.032 0-2.772.896-4.032 2.324-4.032s2.324 1.26 2.324 4.032c0 2.772-.896 4.032-2.324 4.032Zm6.19.826h6.146v-1.022h-4.76l2.982-3.136c.798-.854 1.624-1.918 1.624-3.08 0-1.4-1.106-2.632-2.996-2.632-1.876 0-3.136 1.134-3.164 3.136h1.148c0-1.442.84-2.156 2.016-2.156 1.092 0 1.876.658 1.876 1.652 0 .924-.56 1.666-1.232 2.366l-3.64 3.836V243ZM777.507 279v-9.716h-1.022l-2.338 1.708v1.218l2.268-1.638V279h1.092Zm6.93.154c2.016 0 3.472-1.498 3.472-5.012 0-3.514-1.456-5.012-3.472-5.012s-3.472 1.498-3.472 5.012c0 3.514 1.456 5.012 3.472 5.012Zm0-.98c-1.428 0-2.324-1.26-2.324-4.032 0-2.772.896-4.032 2.324-4.032s2.324 1.26 2.324 4.032c0 2.772-.896 4.032-2.324 4.032Zm6.19.826h6.146v-1.022h-4.76l2.982-3.136c.798-.854 1.624-1.918 1.624-3.08 0-1.4-1.106-2.632-2.996-2.632-1.876 0-3.136 1.134-3.164 3.136h1.148c0-1.442.84-2.156 2.016-2.156 1.092 0 1.876.658 1.876 1.652 0 .924-.56 1.666-1.232 2.366l-3.64 3.836V279Zm8.465-3.234h3.696v-1.022h-3.696v1.022Zm8.872 3.234v-9.716h-1.022l-2.338 1.708v1.218l2.268-1.638V279h1.092Zm6.931.154c2.016 0 3.472-1.498 3.472-5.012 0-3.514-1.456-5.012-3.472-5.012s-3.472 1.498-3.472 5.012c0 3.514 1.456 5.012 3.472 5.012Zm0-.98c-1.428 0-2.324-1.26-2.324-4.032 0-2.772.896-4.032 2.324-4.032s2.324 1.26 2.324 4.032c0 2.772-.896 4.032-2.324 4.032Zm9.508.98c1.834 0 3.276-1.19 3.276-3.304 0-1.988-1.4-3.178-3.094-3.178-1.12 0-2.128.532-2.59 1.596.042-3.206 1.162-4.172 2.45-4.172 1.092 0 1.722.63 1.806 1.512h1.134c-.042-1.372-1.148-2.478-2.912-2.478-1.82 0-3.528 1.232-3.528 4.928 0 3.71 1.484 5.096 3.458 5.096Zm-.028-.966c-1.26 0-2.058-.924-2.058-2.31 0-1.19.84-2.24 2.156-2.24 1.204 0 2.086.882 2.086 2.24 0 1.386-.826 2.31-2.184 2.31ZM778.43 315v-9.716h-1.022l-2.338 1.708v1.218l2.268-1.638V315h1.092Zm6.93.154c2.016 0 3.472-1.498 3.472-5.012 0-3.514-1.456-5.012-3.472-5.012s-3.472 1.498-3.472 5.012c0 3.514 1.456 5.012 3.472 5.012Zm0-.98c-1.428 0-2.324-1.26-2.324-4.032 0-2.772.896-4.032 2.324-4.032s2.324 1.26 2.324 4.032c0 2.772-.896 4.032-2.324 4.032Zm9.508.98c1.834 0 3.276-1.19 3.276-3.304 0-1.988-1.4-3.178-3.094-3.178-1.12 0-2.128.532-2.59 1.596.042-3.206 1.162-4.172 2.45-4.172 1.092 0 1.722.63 1.806 1.512h1.134c-.042-1.372-1.148-2.478-2.912-2.478-1.82 0-3.528 1.232-3.528 4.928 0 3.71 1.484 5.096 3.458 5.096Zm-.028-.966c-1.26 0-2.058-.924-2.058-2.31 0-1.19.84-2.24 2.156-2.24 1.204 0 2.086.882 2.086 2.24 0 1.386-.826 2.31-2.184 2.31Zm5.995-2.422h3.696v-1.022h-3.696v1.022Zm8.873 3.234v-9.716h-1.022l-2.338 1.708v1.218l2.268-1.638V315h1.092Zm6.65 0v-9.716h-1.022l-2.338 1.708v1.218l2.268-1.638V315h1.092Zm6.931.154c2.016 0 3.472-1.498 3.472-5.012 0-3.514-1.456-5.012-3.472-5.012s-3.472 1.498-3.472 5.012c0 3.514 1.456 5.012 3.472 5.012Zm0-.98c-1.428 0-2.324-1.26-2.324-4.032 0-2.772.896-4.032 2.324-4.032s2.324 1.26 2.324 4.032c0 2.772-.896 4.032-2.324 4.032ZM779.187 351v-9.716h-1.022l-2.338 1.708v1.218l2.268-1.638V351h1.092Zm6.651 0v-9.716h-1.022l-2.338 1.708v1.218l2.268-1.638V351h1.092Zm6.931.154c2.016 0 3.472-1.498 3.472-5.012 0-3.514-1.456-5.012-3.472-5.012s-3.472 1.498-3.472 5.012c0 3.514 1.456 5.012 3.472 5.012Zm0-.98c-1.428 0-2.324-1.26-2.324-4.032 0-2.772.896-4.032 2.324-4.032s2.324 1.26 2.324 4.032c0 2.772-.896 4.032-2.324 4.032Zm6.158-2.408h3.696v-1.022h-3.696v1.022Zm8.872 3.234v-9.716h-1.022l-2.338 1.708v1.218l2.268-1.638V351h1.092Zm6.651 0v-9.716h-1.022l-2.338 1.708v1.218l2.268-1.638V351h1.092Zm9.255 0v-2.268h1.4v-.98h-1.4v-6.468h-1.372l-4.592 6.468v.98h4.9V351h1.064Zm-1.064-3.248h-3.682l3.682-5.18v5.18ZM778.128 387v-9.716h-1.022l-2.338 1.708v1.218l2.268-1.638V387h1.092Zm6.65 0v-9.716h-1.022l-2.338 1.708v1.218l2.268-1.638V387h1.092Zm9.255 0v-2.268h1.4v-.98h-1.4v-6.468h-1.372l-4.592 6.468v.98h4.9V387h1.064Zm-1.064-3.248h-3.682l3.682-5.18v5.18Zm5.049.014h3.696v-1.022h-3.696v1.022ZM806.89 387v-9.716h-1.022l-2.338 1.708v1.218l2.268-1.638V387h1.092Zm3.599 0h6.146v-1.022h-4.76l2.982-3.136c.798-.854 1.624-1.918 1.624-3.08 0-1.4-1.106-2.632-2.996-2.632-1.876 0-3.136 1.134-3.164 3.136h1.148c0-1.442.84-2.156 2.016-2.156 1.092 0 1.876.658 1.876 1.652 0 .924-.56 1.666-1.232 2.366l-3.64 3.836V387Zm12.101.154c2.016 0 3.472-1.498 3.472-5.012 0-3.514-1.456-5.012-3.472-5.012s-3.472 1.498-3.472 5.012c0 3.514 1.456 5.012 3.472 5.012Zm0-.98c-1.428 0-2.324-1.26-2.324-4.032 0-2.772.896-4.032 2.324-4.032s2.324 1.26 2.324 4.032c0 2.772-.896 4.032-2.324 4.032Z" fill="#5C5C5C"/><path stroke="#5C5C5C" stroke-width=".5" d="M730 77.75h146M730 185.75h146M730 150.25h146M730 114.25h146M730 221.75h146M730 257.75h146M730 365.75h146M730 330.25h146M730 294.25h146"/><path transform="matrix(.00283 1 -1 .00234 875 42)" stroke="#333" stroke-opacity=".6" stroke-width=".5" d="M0-.25h357.001"/><path stroke="#5C5C5C" stroke-width=".5" d="M294 185.75h144M294 294.25h144M438.25 42v357"/><path stroke="#333" stroke-opacity=".6" stroke-width=".5" d="M3.25 42v357"/></svg>